<svg width="25" height="24" viewBox="0 0 25 24" fill="none" xmlns="http://www.w3.org/2000/svg">
<g clip-path="url(#clip0_1409_16403)">
<path d="M18.3125 23.359C18.3905 23.624 18.2395 23.901 17.9735 23.979C17.9265 23.993 17.8795 24 17.8325 24C17.6155 24 17.4165 23.859 17.3535 23.641C16.7225 21.497 14.6585 20 12.3325 20C10.0065 20 7.94251 21.497 7.31151 23.641C7.23451 23.907 6.95451 24.057 6.69151 23.98C6.42551 23.902 6.27451 23.625 6.35251 23.36C7.10651 20.793 9.56551 19.001 12.3315 19.001C15.0975 19.001 17.5575 20.793 18.3105 23.36L18.3125 23.359ZM24.3125 14.359C23.5585 11.792 21.0995 10 18.3335 10C18.0575 10 17.8335 10.224 17.8335 10.5C17.8335 10.776 18.0575 11 18.3335 11C20.6585 11 22.7235 12.497 23.3545 14.641C23.4175 14.86 23.6175 15 23.8335 15C23.8805 15 23.9275 14.993 23.9745 14.979C24.2405 14.901 24.3905 14.624 24.3125 14.359ZM6.83351 10.5C6.83351 10.224 6.60951 10 6.33351 10C3.56651 10 1.10751 11.792 0.354512 14.359C0.276512 14.624 0.427512 14.901 0.693512 14.979C0.740512 14.993 0.787512 15 0.834512 15C1.05151 15 1.25051 14.859 1.31351 14.641C1.94451 12.497 4.00851 11 6.33451 11C6.61051 11 6.83351 10.776 6.83351 10.5ZM12.3335 9C14.5395 9 16.3335 10.794 16.3335 13C16.3335 15.206 14.5395 17 12.3335 17C10.1275 17 8.33351 15.206 8.33351 13C8.33351 10.794 10.1275 9 12.3335 9ZM9.33351 13C9.33351 14.654 10.6795 16 12.3335 16C13.9875 16 15.3335 14.654 15.3335 13C15.3335 11.346 13.9875 10 12.3335 10C10.6795 10 9.33351 11.346 9.33351 13ZM14.3335 4C14.3335 1.794 16.1275 0 18.3335 0C20.5395 0 22.3335 1.794 22.3335 4C22.3335 6.206 20.5395 8 18.3335 8C16.1275 8 14.3335 6.206 14.3335 4ZM15.3335 4C15.3335 5.654 16.6795 7 18.3335 7C19.9875 7 21.3335 5.654 21.3335 4C21.3335 2.346 19.9875 1 18.3335 1C16.6795 1 15.3335 2.346 15.3335 4ZM2.33351 4C2.33351 1.794 4.12751 0 6.33351 0C8.53951 0 10.3335 1.794 10.3335 4C10.3335 6.206 8.53951 8 6.33351 8C4.12751 8 2.33351 6.206 2.33351 4ZM3.33351 4C3.33351 5.654 4.67951 7 6.33351 7C7.98751 7 9.33351 5.654 9.33351 4C9.33351 2.346 7.98751 1 6.33351 1C4.67951 1 3.33351 2.346 3.33351 4Z" fill="#2FE16C"/>
</g>
<defs>
<clipPath id="clip0_1409_16403">
<rect width="24" height="24" fill="white" transform="translate(0.333496)"/>
</clipPath>
</defs>
</svg>
