<svg width="24" height="24" viewBox="0 0 24 24" fill="none" xmlns="http://www.w3.org/2000/svg">
<g clip-path="url(#clip0_1409_16408)">
<path d="M23.5 22.9998C22.956 22.9998 22.377 22.7738 21.766 22.5338C21.095 22.2708 20.4 21.9998 19.667 21.9998C18.934 21.9998 18.24 22.2708 17.568 22.5338C16.956 22.7738 16.378 22.9998 15.834 22.9998C15.29 22.9998 14.711 22.7738 14.1 22.5338C13.429 22.2708 12.734 21.9998 12.001 21.9998C11.268 21.9998 10.573 22.2708 9.902 22.5338C9.29 22.7738 8.712 22.9998 8.168 22.9998C8.017 22.9998 7.864 22.9818 7.708 22.9518L12.105 13.0238L20.177 16.7648C20.515 16.9218 20.875 16.9998 21.236 16.9998C21.631 16.9998 22.026 16.9058 22.391 16.7188C23.105 16.3528 23.603 15.6838 23.756 14.8838C24.869 9.06877 22.155 3.38877 17.158 1.07277C12.086 -1.27723 5.792 0.408772 2.514 4.99377C2.034 5.66477 1.88 6.51177 2.093 7.31577C2.297 8.08877 2.819 8.71977 3.524 9.04677L11.197 12.6028L6.745 22.6548C6.642 22.6158 6.538 22.5748 6.432 22.5338C5.761 22.2708 5.067 21.9998 4.333 21.9998C3.599 21.9998 2.905 22.2708 2.234 22.5338C1.622 22.7738 1.044 22.9998 0.5 22.9998C0.224 22.9998 0 23.2238 0 23.4998C0 23.7758 0.224 23.9998 0.5 23.9998C1.233 23.9998 1.928 23.7288 2.599 23.4658C3.211 23.2258 3.789 22.9998 4.333 22.9998C4.877 22.9998 5.456 23.2258 6.067 23.4658C6.738 23.7288 7.432 23.9998 8.166 23.9998C8.9 23.9998 9.594 23.7288 10.265 23.4658C10.877 23.2258 11.455 22.9998 11.999 22.9998C12.543 22.9998 13.122 23.2258 13.733 23.4658C14.404 23.7288 15.099 23.9998 15.832 23.9998C16.565 23.9998 17.259 23.7288 17.931 23.4658C18.543 23.2258 19.121 22.9998 19.665 22.9998C20.209 22.9998 20.788 23.2258 21.399 23.4658C22.07 23.7288 22.765 23.9998 23.498 23.9998C23.774 23.9998 23.998 23.7758 23.998 23.4998C23.998 23.2238 23.774 22.9998 23.498 22.9998H23.5ZM3.945 8.13977C3.51 7.93777 3.188 7.54477 3.06 7.05977C2.924 6.54477 3.021 6.00277 3.328 5.57477C5.418 2.65077 8.846 1.01377 12.302 1.01377C13.811 1.01377 15.326 1.32577 16.737 1.97977C21.318 4.10277 23.799 9.33177 22.773 14.6948C22.678 15.1908 22.373 15.6038 21.934 15.8278C21.511 16.0438 21.023 16.0548 20.598 15.8568L3.945 8.13977Z" fill="#9747FF"/>
</g>
<defs>
<clipPath id="clip0_1409_16408">
<rect width="24" height="24" fill="white"/>
</clipPath>
</defs>
</svg>
