<svg width="25" height="24" viewBox="0 0 25 24" fill="none" xmlns="http://www.w3.org/2000/svg">
<g clip-path="url(#clip0_1409_16393)">
<path d="M16.3488 5.86193C16.1508 5.66993 16.1448 5.35293 16.3368 5.15493C16.5288 4.95693 16.8468 4.95193 17.0438 5.14293L19.6958 7.70993V0.50293C19.6958 0.22693 19.9198 0.00292969 20.1958 0.00292969C20.4718 0.00292969 20.6958 0.22693 20.6958 0.50293V7.71093L23.3478 5.14393C23.5458 4.95293 23.8628 4.95693 24.0548 5.15593C24.2468 5.35493 24.2418 5.67093 24.0428 5.86293L21.2418 8.57393C20.9548 8.85993 20.5768 9.00393 20.1968 9.00393C19.8168 9.00393 19.4328 8.85893 19.1418 8.56793L16.3468 5.86293L16.3488 5.86193ZM4.14376 8.56693C4.43476 8.85793 4.81776 9.00293 5.19876 9.00293C5.57976 9.00293 5.95676 8.85893 6.24376 8.57293L9.04476 5.86193C9.24276 5.66993 9.24876 5.35293 9.05676 5.15493C8.86476 4.95693 8.54776 4.95193 8.34976 5.14293L5.69776 7.70993V0.50293C5.69776 0.22693 5.47376 0.00292969 5.19776 0.00292969C4.92176 0.00292969 4.69776 0.22693 4.69776 0.50293V7.71093L2.04576 5.14393C1.84876 4.95293 1.53176 4.95693 1.33876 5.15593C1.14676 5.35393 1.15176 5.67093 1.35076 5.86293L4.14576 8.56793L4.14376 8.56693ZM5.19676 14.0029C6.57576 14.0029 7.69676 15.1239 7.69676 16.5029C7.69676 17.8819 6.57576 19.0029 5.19676 19.0029C3.81776 19.0029 2.69676 17.8819 2.69676 16.5029C2.69676 15.1239 3.81776 14.0029 5.19676 14.0029ZM5.19676 15.0029C4.36976 15.0029 3.69676 15.6759 3.69676 16.5029C3.69676 17.3299 4.36976 18.0029 5.19676 18.0029C6.02376 18.0029 6.69676 17.3299 6.69676 16.5029C6.69676 15.6759 6.02376 15.0029 5.19676 15.0029ZM20.1968 14.0029C21.5758 14.0029 22.6968 15.1239 22.6968 16.5029C22.6968 17.8819 21.5758 19.0029 20.1968 19.0029C18.8178 19.0029 17.6968 17.8819 17.6968 16.5029C17.6968 15.1239 18.8178 14.0029 20.1968 14.0029ZM20.1968 15.0029C19.3698 15.0029 18.6968 15.6759 18.6968 16.5029C18.6968 17.3299 19.3698 18.0029 20.1968 18.0029C21.0238 18.0029 21.6968 17.3299 21.6968 16.5029C21.6968 15.6759 21.0238 15.0029 20.1968 15.0029ZM10.1968 8.50293C10.1968 7.12393 11.3178 6.00293 12.6968 6.00293C14.0758 6.00293 15.1968 7.12393 15.1968 8.50293C15.1968 9.88193 14.0758 11.0029 12.6968 11.0029C11.3178 11.0029 10.1968 9.88193 10.1968 8.50293ZM11.1968 8.50293C11.1968 9.32993 11.8698 10.0029 12.6968 10.0029C13.5238 10.0029 14.1968 9.32993 14.1968 8.50293C14.1968 7.67593 13.5238 7.00293 12.6968 7.00293C11.8698 7.00293 11.1968 7.67593 11.1968 8.50293ZM24.6798 23.3729C24.1478 21.3889 22.3038 20.0029 20.1968 20.0029C18.0898 20.0029 16.2458 21.3889 15.7138 23.3729C15.6428 23.6409 15.8008 23.9139 16.0678 23.9859C16.3378 24.0519 16.6088 23.8989 16.6808 23.6319C17.0958 22.0829 18.5418 21.0019 20.1978 21.0019C21.8538 21.0019 23.2998 22.0829 23.7148 23.6319C23.7758 23.8549 23.9778 24.0019 24.1978 24.0019C24.2408 24.0019 24.2838 23.9959 24.3278 23.9849C24.5948 23.9129 24.7528 23.6389 24.6818 23.3719L24.6798 23.3729ZM5.19676 20.0029C3.08976 20.0029 1.24576 21.3889 0.713764 23.3729C0.642764 23.6409 0.800764 23.9139 1.06776 23.9859C1.33876 24.0519 1.60876 23.8989 1.68076 23.6319C2.09576 22.0829 3.54176 21.0019 5.19776 21.0019C6.85376 21.0019 8.29976 22.0829 8.71476 23.6319C8.77576 23.8549 8.97776 24.0019 9.19776 24.0019C9.24076 24.0019 9.28376 23.9959 9.32776 23.9849C9.59476 23.9129 9.75276 23.6389 9.68176 23.3719C9.14976 21.3879 7.30576 20.0019 5.19876 20.0019L5.19676 20.0029ZM16.2728 15.0029C16.3608 15.0029 16.4488 14.9809 16.5298 14.9319C16.7658 14.7899 16.8438 14.4839 16.7018 14.2459C15.8748 12.8619 14.3408 12.0029 12.6968 12.0029C11.0528 12.0029 9.51876 12.8619 8.69176 14.2459C8.54876 14.4829 8.62776 14.7899 8.86376 14.9319C9.10076 15.0749 9.40776 14.9969 9.54976 14.7599C10.1978 13.6759 11.4038 13.0029 12.6968 13.0029C13.9898 13.0029 15.1958 13.6759 15.8438 14.7599C15.9368 14.9159 16.1028 15.0029 16.2728 15.0029Z" fill="#FF0000"/>
</g>
<defs>
<clipPath id="clip0_1409_16393">
<rect width="24" height="24" fill="white" transform="translate(0.696777 0.00292969)"/>
</clipPath>
</defs>
</svg>
