<svg width="21" height="21" viewBox="0 0 21 21" fill="none" xmlns="http://www.w3.org/2000/svg">
<path d="M16.4271 7.00626C16.3497 6.92816 16.2575 6.86616 16.1559 6.82385C16.0544 6.78155 15.9455 6.75977 15.8355 6.75977C15.7254 6.75977 15.6165 6.78155 15.515 6.82385C15.4134 6.86616 15.3213 6.92816 15.2438 7.00626L11.4271 10.8229C11.3497 10.901 11.2575 10.963 11.1559 11.0053C11.0544 11.0476 10.9455 11.0694 10.8355 11.0694C10.7254 11.0694 10.6165 11.0476 10.515 11.0053C10.4134 10.963 10.3213 10.901 10.2438 10.8229L6.42713 7.00626C6.34966 6.92816 6.25749 6.86616 6.15594 6.82385C6.05439 6.78155 5.94547 6.75977 5.83546 6.75977C5.72545 6.75977 5.61653 6.78155 5.51498 6.82385C5.41343 6.86616 5.32126 6.92816 5.24379 7.00626C5.08858 7.1624 5.00146 7.37361 5.00146 7.59376C5.00146 7.81392 5.08858 8.02513 5.24379 8.18126L9.06879 12.0063C9.53754 12.4744 10.173 12.7374 10.8355 12.7374C11.498 12.7374 12.1334 12.4744 12.6021 12.0063L16.4271 8.18126C16.5823 8.02513 16.6695 7.81392 16.6695 7.59376C16.6695 7.37361 16.5823 7.1624 16.4271 7.00626Z" fill="white"/>
</svg>
