<svg width="6" height="10" viewBox="0 0 6 10" fill="none" xmlns="http://www.w3.org/2000/svg">
<path d="M0.53968 0.599027C0.474347 0.658782 0.422491 0.729875 0.387103 0.808204C0.351715 0.886533 0.333496 0.970549 0.333496 1.0554C0.333496 1.14026 0.351715 1.22427 0.387103 1.3026C0.422491 1.38093 0.474347 1.45202 0.53968 1.51178L3.73214 4.45573C3.79747 4.51549 3.84933 4.58658 3.88471 4.66491C3.9201 4.74324 3.93832 4.82725 3.93832 4.91211C3.93832 4.99696 3.9201 5.08098 3.88471 5.15931C3.84933 5.23764 3.79747 5.30873 3.73214 5.36849L0.53968 8.31244C0.474347 8.37219 0.422491 8.44329 0.387103 8.52162C0.351715 8.59994 0.333496 8.68396 0.333496 8.76882C0.333496 8.85367 0.351715 8.93769 0.387103 9.01602C0.422491 9.09434 0.474347 9.16544 0.53968 9.22519C0.67028 9.34491 0.846947 9.41211 1.0311 9.41211C1.21524 9.41211 1.39191 9.34491 1.52251 9.22519L4.72194 6.27481C5.11354 5.91325 5.3335 5.42312 5.3335 4.91211C5.3335 4.40109 5.11354 3.91097 4.72194 3.54941L1.52251 0.599027C1.39191 0.479307 1.21524 0.412109 1.0311 0.412109C0.846947 0.412109 0.67028 0.479307 0.53968 0.599027Z" fill="white"/>
</svg>
