<svg width="20" height="21" viewBox="0 0 20 21" fill="none" xmlns="http://www.w3.org/2000/svg">
<path d="M16.667 13.833C17.035 13.8332 17.333 14.1319 17.333 14.5V16.5C17.3329 17.972 16.1413 19.166 14.668 19.166H5.32812C3.85347 19.1658 2.66709 17.9704 2.66699 16.5V14.5C2.66699 14.1319 2.96497 13.8332 3.33301 13.833C3.7012 13.833 4 14.1318 4 14.5V16.5C4.0001 17.2383 4.59408 17.8328 5.32812 17.833H14.668C15.4036 17.833 15.9999 17.237 16 16.5V14.5C16 14.1318 16.2988 13.833 16.667 13.833ZM10 1.89941C10.3314 1.89941 10.5996 2.16863 10.5996 2.5V11.7188L13.5762 8.74219C13.8105 8.50807 14.1906 8.50794 14.4248 8.74219C14.6588 8.97646 14.6588 9.35657 14.4248 9.59082L10.4248 13.5908C10.1906 13.8251 9.8105 13.8249 9.57617 13.5908L5.57617 9.59082C5.34186 9.35651 5.34186 8.9765 5.57617 8.74219C5.8105 8.50807 6.19056 8.50794 6.4248 8.74219L9.40039 11.7178V2.5C9.40039 2.16865 9.66866 1.89945 10 1.89941Z" fill="white"/>
<path d="M16.667 13.833L16.6672 13.333H16.667V13.833ZM17.333 16.5L17.833 16.5V16.5H17.333ZM5.32812 19.166L5.32806 19.666H5.32812V19.166ZM2.66699 16.5L2.16699 16.5L2.16699 16.5L2.66699 16.5ZM3.33301 13.833L3.33301 13.333L3.33277 13.333L3.33301 13.833ZM4 16.5L3.5 16.5L3.5 16.5001L4 16.5ZM5.32812 17.833L5.328 18.333H5.32812V17.833ZM16 16.5L16.5 16.5001V16.5H16ZM10 1.89941L10 1.39941L9.99995 1.39941L10 1.89941ZM10.5996 11.7188H10.0996V12.9259L10.9532 12.0723L10.5996 11.7188ZM13.5762 8.74219L13.2228 8.38847L13.2226 8.38863L13.5762 8.74219ZM14.4248 8.74219L14.7785 8.38882L14.7784 8.38863L14.4248 8.74219ZM14.4248 9.59082L14.7784 9.94437L14.7785 9.94421L14.4248 9.59082ZM9.57617 13.5908L9.22262 13.9444L9.2228 13.9446L9.57617 13.5908ZM5.57617 9.59082L5.22262 9.94437L5.22262 9.94437L5.57617 9.59082ZM5.57617 8.74219L5.22278 8.38847L5.22262 8.38863L5.57617 8.74219ZM6.4248 8.74219L6.77836 8.38863L6.77836 8.38863L6.4248 8.74219ZM9.40039 11.7178L9.04684 12.0713L9.90039 12.9249V11.7178H9.40039ZM16.667 13.833L16.6668 14.333C16.7581 14.3331 16.833 14.4073 16.833 14.5H17.333H17.833C17.833 13.8565 17.3119 13.3333 16.6672 13.333L16.667 13.833ZM17.333 14.5H16.833V16.5H17.333H17.833V14.5H17.333ZM17.333 16.5L16.833 16.5C16.8329 17.6963 15.8648 18.666 14.668 18.666V19.166V19.666C16.4179 19.666 17.8329 18.2477 17.833 16.5L17.333 16.5ZM14.668 19.166V18.666H5.32812V19.166V19.666H14.668V19.166ZM5.32812 19.166L5.32819 18.666C4.1313 18.6659 3.16707 17.696 3.16699 16.5L2.66699 16.5L2.16699 16.5C2.16711 18.2449 3.57563 19.6658 5.32806 19.666L5.32812 19.166ZM2.66699 16.5H3.16699V14.5H2.66699H2.16699V16.5H2.66699ZM2.66699 14.5H3.16699C3.16699 14.4073 3.24188 14.3331 3.33325 14.333L3.33301 13.833L3.33277 13.333C2.68806 13.3333 2.16699 13.8565 2.16699 14.5H2.66699ZM3.33301 13.833V14.333C3.42506 14.333 3.5 14.408 3.5 14.5H4H4.5C4.5 13.8557 3.97734 13.333 3.33301 13.333V13.833ZM4 14.5H3.5V16.5H4H4.5V14.5H4ZM4 16.5L3.5 16.5001C3.50013 17.5132 4.31661 18.3328 5.328 18.333L5.32812 17.833L5.32825 17.333C4.87154 17.3329 4.50006 16.9634 4.5 16.4999L4 16.5ZM5.32812 17.833V18.333H14.668V17.833V17.333H5.32812V17.833ZM14.668 17.833V18.333C15.68 18.333 16.4999 17.5129 16.5 16.5001L16 16.5L15.5 16.4999C15.4999 16.961 15.1273 17.333 14.668 17.333V17.833ZM16 16.5H16.5V14.5H16H15.5V16.5H16ZM16 14.5H16.5C16.5 14.408 16.5749 14.333 16.667 14.333V13.833V13.333C16.0227 13.333 15.5 13.8557 15.5 14.5H16ZM10 1.89941V2.39941C10.0542 2.39941 10.0996 2.44371 10.0996 2.5H10.5996H11.0996C11.0996 1.89355 10.6086 1.39941 10 1.39941V1.89941ZM10.5996 2.5H10.0996V11.7188H10.5996H11.0996V2.5H10.5996ZM10.5996 11.7188L10.9532 12.0723L13.9297 9.09574L13.5762 8.74219L13.2226 8.38863L10.2461 11.3652L10.5996 11.7188ZM13.5762 8.74219L13.9296 9.0959C13.9688 9.05667 14.0324 9.05691 14.0713 9.09574L14.4248 8.74219L14.7784 8.38863C14.3487 7.95896 13.6522 7.95946 13.2228 8.38847L13.5762 8.74219ZM14.4248 8.74219L14.0711 9.09556C14.1101 9.13463 14.1101 9.19842 14.0711 9.23743L14.4248 9.59082L14.7785 9.94421C15.2076 9.51471 15.2076 8.81828 14.7785 8.38882L14.4248 8.74219ZM14.4248 9.59082L14.0713 9.23727L10.0713 13.2373L10.4248 13.5908L10.7784 13.9444L14.7784 9.94437L14.4248 9.59082ZM10.4248 13.5908L10.0713 13.2373C10.0325 13.2761 9.96884 13.2763 9.92954 13.2371L9.57617 13.5908L9.2228 13.9446C9.65217 14.3735 10.3487 14.3741 10.7784 13.9444L10.4248 13.5908ZM9.57617 13.5908L9.92973 13.2373L5.92973 9.23727L5.57617 9.59082L5.22262 9.94437L9.22262 13.9444L9.57617 13.5908ZM5.57617 9.59082L5.92973 9.23727C5.89067 9.19821 5.89067 9.13479 5.92973 9.09574L5.57617 8.74219L5.22262 8.38863C4.79304 8.81821 4.79304 9.5148 5.22262 9.94437L5.57617 9.59082ZM5.57617 8.74219L5.92957 9.0959C5.96883 9.05667 6.03242 9.05691 6.07125 9.09574L6.4248 8.74219L6.77836 8.38863C6.34869 7.95896 5.65218 7.95946 5.22278 8.38847L5.57617 8.74219ZM6.4248 8.74219L6.07125 9.09574L9.04684 12.0713L9.40039 11.7178L9.75394 11.3642L6.77836 8.38863L6.4248 8.74219ZM9.40039 11.7178H9.90039V2.5H9.40039H8.90039V11.7178H9.40039ZM9.40039 2.5H9.90039C9.90039 2.44379 9.94582 2.39942 10.0001 2.39941L10 1.89941L9.99995 1.39941C9.3915 1.39948 8.90039 1.89352 8.90039 2.5H9.40039Z" fill="white"/>
</svg>
