<svg width="17" height="16" viewBox="0 0 17 16" fill="none" xmlns="http://www.w3.org/2000/svg">
<path d="M6.63958 3.52671C6.5771 3.58868 6.5275 3.66242 6.49365 3.74366C6.45981 3.8249 6.44238 3.91203 6.44238 4.00004C6.44238 4.08805 6.45981 4.17519 6.49365 4.25642C6.5275 4.33766 6.5771 4.4114 6.63958 4.47337L9.69291 7.52671C9.7554 7.58868 9.805 7.66242 9.83884 7.74366C9.87269 7.8249 9.89011 7.91203 9.89011 8.00004C9.89011 8.08805 9.87269 8.17519 9.83884 8.25643C9.805 8.33766 9.7554 8.4114 9.69291 8.47337L6.63958 11.5267C6.5771 11.5887 6.5275 11.6624 6.49365 11.7437C6.45981 11.8249 6.44238 11.912 6.44238 12C6.44238 12.088 6.45981 12.1752 6.49365 12.2564C6.5275 12.3377 6.5771 12.4114 6.63958 12.4734C6.76449 12.5975 6.93346 12.6672 7.10958 12.6672C7.28571 12.6672 7.45467 12.5975 7.57958 12.4734L10.6396 9.41337C11.0141 9.03837 11.2245 8.53004 11.2245 8.00004C11.2245 7.47004 11.0141 6.96171 10.6396 6.58671L7.57958 3.52671C7.45467 3.40254 7.28571 3.33284 7.10958 3.33284C6.93346 3.33284 6.76449 3.40254 6.63958 3.52671Z" fill="#4A5565"/>
</svg>
