<svg width="17" height="16" viewBox="0 0 17 16" fill="none" xmlns="http://www.w3.org/2000/svg">
<path d="M13.3067 5.47332C13.2447 5.41084 13.171 5.36124 13.0897 5.32739C13.0085 5.29355 12.9213 5.27612 12.8333 5.27612C12.7453 5.27612 12.6582 5.29355 12.5769 5.32739C12.4957 5.36124 12.422 5.41084 12.36 5.47332L9.30667 8.52666C9.24469 8.58914 9.17096 8.63874 9.08972 8.67258C9.00848 8.70643 8.92134 8.72385 8.83333 8.72385C8.74533 8.72385 8.65819 8.70643 8.57695 8.67258C8.49571 8.63874 8.42198 8.58914 8.36 8.52666L5.30667 5.47332C5.24469 5.41084 5.17096 5.36124 5.08972 5.32739C5.00848 5.29355 4.92134 5.27612 4.83333 5.27612C4.74532 5.27612 4.65819 5.29355 4.57695 5.32739C4.49571 5.36124 4.42197 5.41084 4.36 5.47332C4.23583 5.59823 4.16614 5.7672 4.16614 5.94332C4.16614 6.11945 4.23583 6.28841 4.36 6.41332L7.42 9.47332C7.795 9.84786 8.30333 10.0582 8.83333 10.0582C9.36334 10.0582 9.87167 9.84786 10.2467 9.47332L13.3067 6.41332C13.4308 6.28841 13.5005 6.11945 13.5005 5.94332C13.5005 5.7672 13.4308 5.59823 13.3067 5.47332Z" fill="#4A5565"/>
</svg>
