<svg width="22" height="22" viewBox="0 0 22 22" fill="none" xmlns="http://www.w3.org/2000/svg">
<path d="M17.459 10.1023H8.70898L11.5877 7.22351C11.6697 7.14216 11.7348 7.04539 11.7793 6.93876C11.8237 6.83213 11.8466 6.71777 11.8466 6.60226C11.8466 6.48675 11.8237 6.37238 11.7793 6.26575C11.7348 6.15912 11.6697 6.06235 11.5877 5.98101C11.4238 5.81804 11.202 5.72656 10.9709 5.72656C10.7397 5.72656 10.5179 5.81804 10.354 5.98101L6.60023 9.74351C6.2716 10.0702 6.08594 10.5139 6.08398 10.9773C6.08824 11.4376 6.27372 11.8777 6.60023 12.2023L10.354 15.9648C10.4356 16.0458 10.5323 16.1099 10.6387 16.1535C10.7451 16.1972 10.859 16.2194 10.974 16.219C11.0889 16.2186 11.2027 16.1955 11.3088 16.1512C11.4148 16.1068 11.5111 16.042 11.5921 15.9604C11.6731 15.8788 11.7373 15.7821 11.7809 15.6757C11.8245 15.5693 11.8468 15.4554 11.8463 15.3404C11.8459 15.2254 11.8229 15.1117 11.7785 15.0056C11.7341 14.8996 11.6693 14.8033 11.5877 14.7223L8.70898 11.8523H17.459C17.6911 11.8523 17.9136 11.7601 18.0777 11.596C18.2418 11.4319 18.334 11.2093 18.334 10.9773C18.334 10.7452 18.2418 10.5226 18.0777 10.3585C17.9136 10.1944 17.6911 10.1023 17.459 10.1023Z" fill="white"/>
</svg>
