<svg width="24" height="25" viewBox="0 0 24 25" fill="none" xmlns="http://www.w3.org/2000/svg">
<g clip-path="url(#clip0_242_4558)">
<path d="M22.6927 14.1597L20.7927 7.32374C20.2358 5.32107 19.0254 3.56202 17.354 2.32621C15.6826 1.09039 13.6461 0.448724 11.5681 0.503204C9.4902 0.557684 7.49009 1.30518 5.88574 2.62689C4.28139 3.94859 3.16488 5.76864 2.71368 7.79774L1.24268 14.4127C1.08019 15.1437 1.08395 15.9018 1.25367 16.6311C1.42339 17.3603 1.75474 18.0422 2.22326 18.6263C2.69178 19.2104 3.2855 19.6818 3.96059 20.0057C4.63568 20.3296 5.3749 20.4978 6.12368 20.4977H7.23768C7.46719 21.628 8.08041 22.6442 8.97342 23.3741C9.86643 24.104 10.9843 24.5028 12.1377 24.5028C13.291 24.5028 14.4089 24.104 15.3019 23.3741C16.1949 22.6442 16.8082 21.628 17.0377 20.4977H17.8757C18.6465 20.4978 19.4069 20.3196 20.0974 19.9772C20.788 19.6347 21.39 19.1372 21.8565 18.5236C22.323 17.91 22.6413 17.1968 22.7865 16.4398C22.9317 15.6828 22.8989 14.9024 22.6927 14.1597ZM12.1377 22.4977C11.5194 22.4952 10.917 22.3017 10.413 21.9436C9.90891 21.5856 9.52776 21.0806 9.32168 20.4977H14.9537C14.7476 21.0806 14.3664 21.5856 13.8624 21.9436C13.3583 22.3017 12.7559 22.4952 12.1377 22.4977ZM20.2637 17.3127C19.985 17.6824 19.624 17.982 19.2093 18.1877C18.7946 18.3934 18.3376 18.4996 17.8747 18.4977H6.12368C5.67446 18.4977 5.231 18.3967 4.82602 18.2023C4.42104 18.0079 4.06488 17.7251 3.78384 17.3746C3.50279 17.0242 3.30404 16.6151 3.20224 16.1776C3.10044 15.7401 3.0982 15.2852 3.19568 14.8467L4.66568 8.23074C5.02003 6.63694 5.89698 5.20734 7.15713 4.16919C8.41728 3.13103 9.9883 2.54391 11.6205 2.50115C13.2526 2.45839 14.8522 2.96245 16.165 3.93321C17.4778 4.90396 18.4284 6.28568 18.8657 7.85874L20.7657 14.6947C20.8912 15.1401 20.9112 15.6086 20.8241 16.0631C20.7369 16.5175 20.5451 16.9454 20.2637 17.3127Z" fill="white"/>
</g>
<defs>
<clipPath id="clip0_242_4558">
<rect width="24" height="24" fill="white" transform="translate(0 0.5)"/>
</clipPath>
</defs>
</svg>
