<svg width="13" height="12" viewBox="0 0 13 12" fill="none" xmlns="http://www.w3.org/2000/svg">
<path d="M10.1464 1.64645C10.3417 1.45118 10.6582 1.45118 10.8535 1.64645C11.0487 1.84171 11.0487 2.15822 10.8535 2.35348L7.20699 5.99996L10.8535 9.64645L10.9179 9.72457C11.0461 9.91865 11.0243 10.1826 10.8535 10.3535C10.6826 10.5243 10.4187 10.5461 10.2246 10.4179L10.1464 10.3535L6.49996 6.70699L2.85348 10.3535C2.65822 10.5487 2.34171 10.5487 2.14645 10.3535C1.95118 10.1582 1.95118 9.84171 2.14645 9.64645L5.79293 5.99996L2.14645 2.35348C1.95118 2.15822 1.95118 1.84171 2.14645 1.64645C2.34171 1.45118 2.65822 1.45118 2.85348 1.64645L6.49996 5.29293L10.1464 1.64645Z" fill="#2563EB"/>
</svg>
