<svg width="22" height="22" viewBox="0 0 22 22" fill="none" xmlns="http://www.w3.org/2000/svg">
<path d="M10.834 1.87109C16.1393 1.87157 20.4404 6.17303 20.4404 11.4785C20.44 16.7836 16.139 21.0845 10.834 21.085C5.5285 21.085 1.22704 16.7838 1.22656 11.4785C1.22656 6.17274 5.52821 1.87109 10.834 1.87109ZM10.834 3.87109C6.63278 3.87109 3.22656 7.27731 3.22656 11.4785C3.22704 15.6793 6.63308 19.085 10.834 19.085C15.0345 19.0845 18.44 15.679 18.4404 11.4785C18.4404 7.27761 15.0347 3.87157 10.834 3.87109ZM10.833 6.27832C11.3852 6.27832 11.8329 6.72615 11.833 7.27832V11.0645L14.3398 13.5713L14.4092 13.6475C14.7292 14.0402 14.7057 14.6193 14.3398 14.9854C13.9493 15.3758 13.3163 15.3758 12.9258 14.9854L10.126 12.1855C9.93856 11.9981 9.83306 11.7436 9.83301 11.4785V7.27832C9.83314 6.72615 10.2808 6.27832 10.833 6.27832Z" fill="#94A3B8"/>
</svg>
