<svg width="32" height="32" viewBox="0 0 32 32" fill="none" xmlns="http://www.w3.org/2000/svg">
<path d="M25.9587 4.62574C26.3491 4.23538 26.9822 4.2357 27.3728 4.62574C27.7633 5.01626 27.7633 5.64928 27.3728 6.0398L17.4128 15.9988L27.3728 25.9587C27.7633 26.3493 27.7633 26.9823 27.3728 27.3728C26.9823 27.7633 26.3493 27.7633 25.9587 27.3728L15.9988 17.4128L6.0398 27.3728C5.64928 27.7633 5.01626 27.7633 4.62574 27.3728C4.2357 26.9822 4.23538 26.3491 4.62574 25.9587L14.5847 15.9988L4.62574 6.0398C4.23554 5.64925 4.23532 5.01615 4.62574 4.62574C5.01615 4.23532 5.64925 4.23554 6.0398 4.62574L15.9988 14.5847L25.9587 4.62574Z" fill="black"/>
</svg>
