<svg width="24" height="25" viewBox="0 0 24 25" fill="none" xmlns="http://www.w3.org/2000/svg">
<g clip-path="url(#clip0_350_4585)">
<path d="M14.5244 2.32031H21C21.2652 2.32031 21.5195 2.42581 21.707 2.61328C21.8945 2.80077 21.9999 3.05517 22 3.32031V21.3203C22 21.5855 21.8945 21.8398 21.707 22.0273C21.5195 22.2149 21.2652 22.3203 21 22.3203H14.5342V24.3203H21C21.7956 24.3203 22.5585 24.004 23.1211 23.4414C23.6836 22.8788 24 22.1159 24 21.3203V3.32031C23.9999 2.52473 23.6837 1.76178 23.1211 1.19922C22.5585 0.63667 21.7956 0.320313 21 0.320312H14.5244V2.32031ZM1.2373 10.5537L1.23633 10.5488C1.00417 10.7809 0.820012 11.0571 0.694336 11.3604C0.568658 11.6637 0.503906 11.989 0.503906 12.3174C0.503915 12.6457 0.568667 12.9711 0.694336 13.2744C0.820008 13.5776 1.00421 13.8529 1.23633 14.085L6.18555 19.0352L7.59961 17.6211L3.2998 13.3213H17.3828V11.3213H3.2998L7.59961 7.02148L6.18652 5.60352L1.2373 10.5537Z" fill="#64748B"/>
</g>
<defs>
<clipPath id="clip0_350_4585">
<rect width="24" height="24" fill="white" transform="matrix(-1 0 0 1 24 0.320312)"/>
</clipPath>
</defs>
</svg>
