<svg width="21" height="20" viewBox="0 0 21 20" fill="none" xmlns="http://www.w3.org/2000/svg">
<path d="M14.332 4C14.5364 4 14.7264 4.06178 14.8848 4.16699H16L16.1006 4.17676C16.3282 4.22355 16.5 4.42552 16.5 4.66699C16.4998 4.90836 16.3282 5.11051 16.1006 5.15723L16 5.16699H15.332V16.333C15.332 16.8853 14.8843 17.333 14.332 17.333H6.99902L6.89648 17.3281C6.39252 17.2766 5.99902 16.8506 5.99902 16.333V5.16699H5.33301C5.05697 5.16699 4.83318 4.94298 4.83301 4.66699C4.83301 4.39085 5.05687 4.16699 5.33301 4.16699H6.44727C6.60547 4.06193 6.79489 4.00007 6.99902 4H14.332ZM6.99902 16.333H14.332V5.16699H6.99902V16.333ZM13.332 1.5C13.6082 1.5 13.832 1.72386 13.832 2C13.832 2.27614 13.6082 2.5 13.332 2.5H7.99902C7.72303 2.49982 7.49902 2.27603 7.49902 2C7.49902 1.72397 7.72303 1.50018 7.99902 1.5H13.332Z" fill="#EF4444"/>
<path d="M14.8848 4.16699L14.7464 4.37521L14.8093 4.41699H14.8848V4.16699ZM16 4.16699L16.0242 3.91816L16.0121 3.91699H16V4.16699ZM16.1006 4.17676L16.1509 3.93188L16.1379 3.92921L16.1247 3.92793L16.1006 4.17676ZM16.5 4.66699L16.75 4.66715V4.66699H16.5ZM16.1006 5.15723L16.1247 5.40606L16.1379 5.40478L16.1509 5.40212L16.1006 5.15723ZM16 5.16699V5.41699H16.0121L16.0242 5.41582L16 5.16699ZM15.332 5.16699V4.91699H15.082V5.16699H15.332ZM6.99902 17.333L6.98712 17.583H6.99902V17.333ZM6.89648 17.3281L6.87103 17.5772L6.88459 17.5778L6.89648 17.3281ZM5.99902 5.16699H6.24902V4.91699H5.99902V5.16699ZM4.83301 4.66699H4.58301L4.58301 4.66715L4.83301 4.66699ZM6.44727 4.16699V4.41699H6.52272L6.58557 4.37525L6.44727 4.16699ZM6.99902 4V3.75H6.99894L6.99902 4ZM6.99902 16.333H6.74902V16.583H6.99902V16.333ZM14.332 16.333V16.583H14.582V16.333H14.332ZM14.332 5.16699H14.582V4.91699H14.332V5.16699ZM6.99902 5.16699V4.91699H6.74902V5.16699H6.99902ZM7.99902 2.5L7.99886 2.75H7.99902V2.5ZM7.99902 1.5V1.25L7.99886 1.25L7.99902 1.5ZM14.332 4V4.25C14.4852 4.25 14.6274 4.29617 14.7464 4.37521L14.8848 4.16699L15.0231 3.95877C14.8254 3.82739 14.5875 3.75 14.332 3.75V4ZM14.8848 4.16699V4.41699H16V4.16699V3.91699H14.8848V4.16699ZM16 4.16699L15.9758 4.41582L16.0764 4.42559L16.1006 4.17676L16.1247 3.92793L16.0242 3.91816L16 4.16699ZM16.1006 4.17676L16.0502 4.42164C16.1641 4.44505 16.25 4.54671 16.25 4.66699H16.5H16.75C16.75 4.30433 16.4923 4.00205 16.1509 3.93188L16.1006 4.17676ZM16.5 4.66699L16.25 4.66683C16.2499 4.78733 16.1639 4.88902 16.0503 4.91233L16.1006 5.15723L16.1509 5.40212C16.4924 5.33199 16.7498 5.02939 16.75 4.66715L16.5 4.66699ZM16.1006 5.15723L16.0764 4.9084L15.9758 4.91816L16 5.16699L16.0242 5.41582L16.1247 5.40606L16.1006 5.15723ZM16 5.16699V4.91699H15.332V5.16699V5.41699H16V5.16699ZM15.332 5.16699H15.082V16.333H15.332H15.582V5.16699H15.332ZM15.332 16.333H15.082C15.082 16.7472 14.7462 17.083 14.332 17.083V17.333V17.583C15.0224 17.583 15.582 17.0234 15.582 16.333H15.332ZM14.332 17.333V17.083H6.99902V17.333V17.583H14.332V17.333ZM6.99902 17.333L7.01091 17.0833L6.90838 17.0784L6.89648 17.3281L6.88459 17.5778L6.98713 17.5827L6.99902 17.333ZM6.89648 17.3281L6.9219 17.0794C6.54419 17.0408 6.24902 16.721 6.24902 16.333H5.99902H5.74902C5.74902 16.9801 6.24086 17.5124 6.87107 17.5768L6.89648 17.3281ZM5.99902 16.333H6.24902V5.16699H5.99902H5.74902V16.333H5.99902ZM5.99902 5.16699V4.91699H5.33301V5.16699V5.41699H5.99902V5.16699ZM5.33301 5.16699V4.91699C5.1952 4.91699 5.0831 4.80504 5.08301 4.66683L4.83301 4.66699L4.58301 4.66715C4.58327 5.08093 4.91874 5.41699 5.33301 5.41699V5.16699ZM4.83301 4.66699H5.08301C5.08301 4.52892 5.19494 4.41699 5.33301 4.41699V4.16699V3.91699C4.91879 3.91699 4.58301 4.25278 4.58301 4.66699H4.83301ZM5.33301 4.16699V4.41699H6.44727V4.16699V3.91699H5.33301V4.16699ZM6.44727 4.16699L6.58557 4.37525C6.70463 4.29618 6.84629 4.25005 6.9991 4.25L6.99902 4L6.99894 3.75C6.74349 3.75008 6.50631 3.82767 6.30896 3.95873L6.44727 4.16699ZM6.99902 4V4.25H14.332V4V3.75H6.99902V4ZM6.99902 16.333V16.583H14.332V16.333V16.083H6.99902V16.333ZM14.332 16.333H14.582V5.16699H14.332H14.082V16.333H14.332ZM14.332 5.16699V4.91699H6.99902V5.16699V5.41699H14.332V5.16699ZM6.99902 5.16699H6.74902V16.333H6.99902H7.24902V5.16699H6.99902ZM13.332 1.5V1.75C13.4701 1.75 13.582 1.86193 13.582 2H13.832H14.082C14.082 1.58579 13.7462 1.25 13.332 1.25V1.5ZM13.832 2H13.582C13.582 2.13807 13.4701 2.25 13.332 2.25V2.5V2.75C13.7462 2.75 14.082 2.41421 14.082 2H13.832ZM13.332 2.5V2.25H7.99902V2.5V2.75H13.332V2.5ZM7.99902 2.5L7.99918 2.25C7.86098 2.24991 7.74902 2.1378 7.74902 2H7.49902H7.24902C7.24902 2.41426 7.58508 2.74974 7.99886 2.75L7.99902 2.5ZM7.49902 2H7.74902C7.74902 1.8622 7.86098 1.75009 7.99918 1.75L7.99902 1.5L7.99886 1.25C7.58508 1.25026 7.24902 1.58574 7.24902 2H7.49902ZM7.99902 1.5V1.75H13.332V1.5V1.25H7.99902V1.5Z" fill="#EF4444"/>
</svg>
