<svg width="20" height="20" viewBox="0 0 20 20" fill="none" xmlns="http://www.w3.org/2000/svg">
<path d="M15.0578 1.58212C15.2518 1.45406 15.5158 1.47595 15.6867 1.64657L18.3537 4.31356C18.4472 4.40722 18.5001 4.53475 18.5002 4.66708C18.5001 4.79952 18.4473 4.92691 18.3537 5.02059L8.42107 14.9522C8.33123 15.042 8.2253 15.1141 8.10857 15.1641L3.53045 17.1261C3.3426 17.2066 3.12424 17.165 2.97967 17.0206C2.83533 16.8761 2.79282 16.6576 2.87322 16.4698L4.83611 11.8917C4.88622 11.7749 4.95816 11.6681 5.04803 11.5782L14.9797 1.64657L15.0578 1.58212ZM5.75506 12.2852L4.91326 14.2472L5.75115 15.085L7.71404 14.2452L17.2922 4.6661L15.3332 2.70712L5.75506 12.2852Z" fill="black"/>
<path d="M15.0578 1.58212L14.9201 1.37348C14.9127 1.37836 14.9055 1.38363 14.8987 1.38927L15.0578 1.58212ZM15.6867 1.64657L15.8635 1.46979L15.8634 1.46967L15.6867 1.64657ZM18.3537 4.31356L18.5306 4.13695L18.5305 4.13679L18.3537 4.31356ZM18.5002 4.66708L18.7502 4.66724V4.6669L18.5002 4.66708ZM18.3537 5.02059L18.5305 5.19738L18.5305 5.19732L18.3537 5.02059ZM8.42107 14.9522L8.5978 15.1291L8.59784 15.129L8.42107 14.9522ZM8.10857 15.1641L8.20705 15.3939L8.20712 15.3939L8.10857 15.1641ZM3.53045 17.1261L3.43198 16.8963L3.43197 16.8963L3.53045 17.1261ZM2.97967 17.0206L2.80277 17.1972L2.80297 17.1975L2.97967 17.0206ZM2.87322 16.4698L2.64345 16.3713L2.6434 16.3714L2.87322 16.4698ZM4.83611 11.8917L4.60637 11.7931L4.60634 11.7932L4.83611 11.8917ZM5.04803 11.5782L4.87125 11.4014L5.04803 11.5782ZM14.9797 1.64657L14.8206 1.45373C14.8144 1.4588 14.8085 1.46416 14.8029 1.46979L14.9797 1.64657ZM5.75506 12.2852L5.57828 12.1085C5.55582 12.1309 5.53784 12.1575 5.52531 12.1867L5.75506 12.2852ZM4.91326 14.2472L4.68352 14.1486C4.64319 14.2426 4.66417 14.3516 4.73649 14.4239L4.91326 14.2472ZM5.75115 15.085L5.57438 15.2618C5.64662 15.3341 5.75556 15.3551 5.84949 15.3149L5.75115 15.085ZM7.71404 14.2452L7.81239 14.475C7.84168 14.4625 7.8683 14.4445 7.89083 14.422L7.71404 14.2452ZM17.2922 4.6661L17.469 4.84287C17.5666 4.74524 17.5666 4.58695 17.4689 4.48932L17.2922 4.6661ZM15.3332 2.70712L15.51 2.53034C15.4631 2.48346 15.3995 2.45712 15.3332 2.45712C15.2669 2.45712 15.2033 2.48346 15.1564 2.53034L15.3332 2.70712ZM15.0578 1.58212L15.1955 1.79076C15.292 1.72708 15.4245 1.73799 15.51 1.82347L15.6867 1.64657L15.8634 1.46967C15.6072 1.2139 15.2116 1.18105 14.9201 1.37348L15.0578 1.58212ZM15.6867 1.64657L15.5099 1.82335L18.1769 4.49034L18.3537 4.31356L18.5305 4.13679L15.8635 1.46979L15.6867 1.64657ZM18.3537 4.31356L18.1768 4.49018C18.2236 4.53709 18.2501 4.60122 18.2502 4.66725L18.5002 4.66708L18.7502 4.6669C18.75 4.46828 18.6708 4.27734 18.5306 4.13695L18.3537 4.31356ZM18.5002 4.66708L18.2502 4.66692C18.2501 4.73316 18.2237 4.79705 18.1769 4.84387L18.3537 5.02059L18.5305 5.19732C18.671 5.05678 18.75 4.86588 18.7502 4.66724L18.5002 4.66708ZM18.3537 5.02059L18.1769 4.84381L8.24431 14.7754L8.42107 14.9522L8.59784 15.129L18.5305 5.19738L18.3537 5.02059ZM8.42107 14.9522L8.24435 14.7754C8.1767 14.843 8.09722 14.897 8.01003 14.9344L8.10857 15.1641L8.20712 15.3939C8.35338 15.3312 8.48577 15.241 8.5978 15.1291L8.42107 14.9522ZM8.10857 15.1641L8.0101 14.9344L3.43198 16.8963L3.53045 17.1261L3.62892 17.3559L8.20705 15.3939L8.10857 15.1641ZM3.53045 17.1261L3.43197 16.8963C3.33761 16.9367 3.22831 16.9156 3.15636 16.8437L2.97967 17.0206L2.80297 17.1975C3.02016 17.4144 3.34759 17.4764 3.62893 17.3558L3.53045 17.1261ZM2.97967 17.0206L3.15657 16.8439C3.08406 16.7713 3.06303 16.6617 3.10304 16.5682L2.87322 16.4698L2.6434 16.3714C2.52261 16.6535 2.58661 16.9808 2.80277 17.1972L2.97967 17.0206ZM2.87322 16.4698L3.10299 16.5683L5.06589 11.9902L4.83611 11.8917L4.60634 11.7932L2.64345 16.3713L2.87322 16.4698ZM4.83611 11.8917L5.06586 11.9903C5.10362 11.9022 5.15772 11.8221 5.2248 11.755L5.04803 11.5782L4.87125 11.4014C4.7586 11.5141 4.66882 11.6475 4.60637 11.7931L4.83611 11.8917ZM5.04803 11.5782L5.2248 11.755L15.1564 1.82335L14.9797 1.64657L14.8029 1.46979L4.87125 11.4014L5.04803 11.5782ZM14.9797 1.64657L15.1388 1.83941L15.2169 1.77496L15.0578 1.58212L14.8987 1.38927L14.8206 1.45373L14.9797 1.64657ZM5.75506 12.2852L5.52531 12.1867L4.68352 14.1486L4.91326 14.2472L5.14301 14.3457L5.9848 12.3838L5.75506 12.2852ZM4.91326 14.2472L4.73649 14.4239L5.57438 15.2618L5.75115 15.085L5.92793 14.9083L5.09004 14.0704L4.91326 14.2472ZM5.75115 15.085L5.84949 15.3149L7.81239 14.475L7.71404 14.2452L7.6157 14.0154L5.65281 14.8552L5.75115 15.085ZM7.71404 14.2452L7.89083 14.422L17.469 4.84287L17.2922 4.6661L17.1154 4.48933L7.53726 14.0684L7.71404 14.2452ZM17.2922 4.6661L17.4689 4.48932L15.51 2.53034L15.3332 2.70712L15.1564 2.88389L17.1154 4.84288L17.2922 4.6661ZM15.3332 2.70712L15.1564 2.53034L5.57828 12.1085L5.75506 12.2852L5.93184 12.462L15.51 2.88389L15.3332 2.70712Z" fill="black"/>
</svg>
