<svg width="21" height="22" viewBox="0 0 21 22" fill="none" xmlns="http://www.w3.org/2000/svg">
<path d="M8.54332 5.61766C9.1579 5.45321 9.81055 5.35938 10.4998 5.35938C13.7875 5.35938 16.2433 7.49473 17.7033 9.2438C18.799 10.5563 18.7988 12.4126 17.7032 13.7251C17.5353 13.9262 17.3542 14.1325 17.1603 14.3399M10.9373 8.89567C12.0365 9.08009 12.9041 9.94766 13.0885 11.0469M2.62479 3.60938L18.3748 19.3594M10.0623 14.0731C9.11364 13.9139 8.33752 13.246 8.02416 12.3594M3.80529 8.66532C3.62415 8.86046 3.45447 9.05427 3.29645 9.24356C2.20078 10.5561 2.20061 12.4124 3.29625 13.7249C4.75632 15.474 7.21209 17.6094 10.4998 17.6094C11.2016 17.6094 11.8655 17.5121 12.4899 17.342" stroke="#64748B" stroke-width="1.5" stroke-linecap="round" stroke-linejoin="round"/>
</svg>
