<svg width="21" height="22" viewBox="0 0 21 22" fill="none" xmlns="http://www.w3.org/2000/svg">
<path d="M17.5112 9.37505C16.9096 8.3899 16.1507 7.50991 15.2647 6.77002C15.2647 6.77002 15.3509 6.84275 15.2647 6.76587C15.1277 6.64361 14.1591 5.99803 14.1591 5.99803C14.1591 5.99803 14.1591 5.99364 14.1591 5.99613V5.99364C12.9012 5.24646 11.4631 4.85704 10 4.86739C5.8742 4.86739 3.52307 7.69168 2.48878 9.37505C2.16925 9.89186 2 10.4875 2 11.0951C2 11.7027 2.16925 12.2983 2.48878 12.8151C3.0904 13.8003 3.84927 14.6802 4.73528 15.4201C4.73528 15.4201 5.78007 16.1662 5.85583 16.2006C5.93713 16.1657 5.62646 16.0403 5.84554 16.1945C7.10192 16.9416 8.53832 17.3317 10 17.3228C14.1258 17.3228 16.4769 14.4985 17.5112 12.8151C17.8307 12.2983 18 11.7027 18 11.0951C18 10.4875 17.8307 9.89186 17.5112 9.37505ZM3.62436 12.1174C3.43452 11.8102 3.33397 11.4562 3.33397 11.0951C3.33397 10.734 3.43452 10.38 3.62436 10.0728C4.51337 8.62933 6.52262 6.20023 10 6.20023C11.1064 6.19403 12.1973 6.46069 13.1762 6.97661L11.8347 8.31811C11.1948 7.89334 10.4278 7.703 9.66361 7.77941C8.89945 7.85581 8.18525 8.19425 7.64221 8.73729C7.09917 9.28033 6.76073 9.99453 6.68433 10.7587C6.60792 11.5229 6.79825 12.2899 7.22303 12.9297L5.6836 14.4692C4.8673 13.8092 4.17072 13.0137 3.62436 12.1174ZM16.3756 12.1174C15.4866 13.5608 13.4774 15.9899 10 15.9899C8.85432 15.9899 6.68433 15.4201 5.6836 14.4692L7.22303 12.9297L8.16535 13.8721C8.80515 14.2968 9.57222 14.4872 10.3364 14.4108C11.1006 14.3343 11.8148 13.9959 12.3578 13.4529C12.9008 12.9098 13.2393 12.1956 13.3157 11.4315C13.3921 10.6673 13.1762 9.00643 11.8347 8.31811L13.1762 6.97661C14.155 7.49253 15.8293 9.17649 16.3756 10.0728C16.5655 10.38 16.666 10.734 16.666 11.0951C16.666 11.4562 16.5655 11.8102 16.3756 12.1174Z" fill="#64748B"/>
</svg>
