<svg width="37" height="37" viewBox="0 0 37 37" fill="none" xmlns="http://www.w3.org/2000/svg">
<rect x="0.498047" y="0.417969" width="36" height="36" rx="18" fill="#F1F5F9"/>
<path d="M21.7402 11.8164C23.7077 11.8164 25.3027 13.4114 25.3027 15.3789V21.3789C25.3027 23.3464 23.7077 24.9414 21.7402 24.9414H15.7402C13.7727 24.9414 12.1777 23.3464 12.1777 21.3789V15.3789C12.1777 13.4114 13.7727 11.8164 15.7402 11.8164H21.7402ZM15.7402 12.9414C14.394 12.9414 13.3027 14.0327 13.3027 15.3789V21.3789C13.3027 22.7251 14.394 23.8164 15.7402 23.8164H21.7402C23.0864 23.8164 24.1777 22.7251 24.1777 21.3789V15.3789C24.1777 14.0327 23.0864 12.9414 21.7402 12.9414H15.7402ZM18.7402 15.5664C20.2935 15.5664 21.5527 16.8256 21.5527 18.3789C21.5527 19.9322 20.2935 21.1914 18.7402 21.1914C17.1869 21.1914 15.9277 19.9322 15.9277 18.3789C15.9277 16.8256 17.1869 15.5664 18.7402 15.5664ZM18.7402 16.6914C17.8083 16.6914 17.0527 17.4469 17.0527 18.3789C17.0527 19.3109 17.8083 20.0664 18.7402 20.0664C19.6722 20.0664 20.4277 19.3109 20.4277 18.3789C20.4277 17.4469 19.6722 16.6914 18.7402 16.6914ZM22.1152 14.4414C22.4259 14.4414 22.6777 14.6932 22.6777 15.0039V15.0049C22.6777 15.3155 22.4259 15.5674 22.1152 15.5674C21.8046 15.5674 21.5527 15.3155 21.5527 15.0049V15.0039C21.5527 14.6932 21.8046 14.4414 22.1152 14.4414Z" fill="#27272A"/>
</svg>
