<svg width="37" height="37" viewBox="0 0 37 37" fill="none" xmlns="http://www.w3.org/2000/svg">
<rect x="0.498047" y="0.417969" width="36" height="36" rx="18" fill="#F1F5F9"/>
<path d="M22.998 11.8555C24.1371 11.8555 25.0605 12.7789 25.0605 13.918V22.918C25.0605 24.0571 24.1371 24.9805 22.998 24.9805H13.998C12.859 24.9805 11.9355 24.0571 11.9355 22.918V13.918C11.9355 12.7789 12.859 11.8555 13.998 11.8555H22.998ZM13.998 12.9805C13.4803 12.9805 13.0605 13.4002 13.0605 13.918V22.918C13.0605 23.4357 13.4803 23.8555 13.998 23.8555H22.998C23.5158 23.8555 23.9355 23.4357 23.9355 22.918V13.918C23.9355 13.4002 23.5158 12.9805 22.998 12.9805H13.998ZM15.498 17.1055C15.8087 17.1055 16.0605 17.3573 16.0605 17.668V21.418C16.0605 21.7286 15.8087 21.9805 15.498 21.9805C15.1874 21.9805 14.9355 21.7286 14.9355 21.418V17.668C14.9355 17.3573 15.1874 17.1055 15.498 17.1055ZM19.998 17.1055C20.5451 17.1055 21.0693 17.3232 21.4561 17.71C21.8428 18.0968 22.0605 18.621 22.0605 19.168V21.418C22.0605 21.7286 21.8087 21.9805 21.498 21.9805C21.1874 21.9805 20.9355 21.7286 20.9355 21.418V19.168C20.9355 18.9193 20.8369 18.6807 20.6611 18.5049C20.4853 18.3291 20.2467 18.2305 19.998 18.2305C19.7494 18.2305 19.5108 18.3291 19.335 18.5049C19.1591 18.6807 19.0605 18.9193 19.0605 19.168V21.418C19.0605 21.7286 18.8087 21.9805 18.498 21.9805C18.1874 21.9805 17.9355 21.7286 17.9355 21.418V17.668C17.9355 17.3573 18.1874 17.1055 18.498 17.1055C18.7021 17.1055 18.8789 17.2153 18.9775 17.3779C19.286 17.2019 19.6366 17.1055 19.998 17.1055ZM15.498 14.8555C15.8087 14.8555 16.0605 15.1073 16.0605 15.418V15.4258C16.0604 15.7363 15.8086 15.9883 15.498 15.9883C15.1875 15.9883 14.9357 15.7363 14.9355 15.4258V15.418C14.9355 15.1073 15.1874 14.8555 15.498 14.8555Z" fill="#27272A"/>
</svg>
