<svg width="22" height="23" viewBox="0 0 22 23" fill="none" xmlns="http://www.w3.org/2000/svg">
<g clip-path="url(#clip0_314_4543)">
<path d="M6.41667 20.5592H4.58333C3.85399 20.5592 3.15451 20.2695 2.63879 19.7538C2.12306 19.2381 1.83333 18.5386 1.83333 17.8092V4.97591C1.83333 4.24657 2.12306 3.54709 2.63879 3.03137C3.15451 2.51564 3.85399 2.22591 4.58333 2.22591H6.41667C6.65978 2.22591 6.89294 2.12933 7.06485 1.95743C7.23676 1.78552 7.33333 1.55236 7.33333 1.30924C7.33333 1.06613 7.23676 0.832972 7.06485 0.661064C6.89294 0.489155 6.65978 0.392578 6.41667 0.392578H4.58333C3.3682 0.394034 2.20326 0.877387 1.34403 1.73661C0.484808 2.59584 0.00145554 3.76078 0 4.97591L0 17.8092C0.00145554 19.0244 0.484808 20.1893 1.34403 21.0485C2.20326 21.9078 3.3682 22.3911 4.58333 22.3926H6.41667C6.65978 22.3926 6.89294 22.296 7.06485 22.1241C7.23676 21.9522 7.33333 21.719 7.33333 21.4759C7.33333 21.2328 7.23676 20.9996 7.06485 20.8277C6.89294 20.6558 6.65978 20.5592 6.41667 20.5592Z" fill="white"/>
<path d="M21.0833 10.4761L6.62106 10.5054C6.70146 10.3561 6.80201 10.2185 6.91989 10.0966L10.4756 6.54086C10.5632 6.4563 10.633 6.35515 10.6811 6.24331C10.7291 6.13147 10.7544 6.01119 10.7555 5.88948C10.7565 5.76776 10.7333 5.64705 10.6872 5.5344C10.6411 5.42175 10.5731 5.3194 10.487 5.23333C10.4009 5.14726 10.2986 5.0792 10.1859 5.0331C10.0733 4.98701 9.95257 4.96382 9.83086 4.96488C9.70914 4.96594 9.58886 4.99122 9.47702 5.03927C9.36518 5.08731 9.26403 5.15714 9.17947 5.24469L5.62189 8.80044C4.9345 9.48804 4.54834 10.4205 4.54834 11.3928C4.54834 12.365 4.9345 13.2975 5.62189 13.9851L9.17764 17.5409C9.2622 17.6284 9.36335 17.6982 9.47519 17.7463C9.58702 17.7943 9.70731 17.8196 9.82902 17.8207C9.95074 17.8217 10.0714 17.7985 10.1841 17.7524C10.2968 17.7064 10.3991 17.6383 10.4852 17.5522C10.5712 17.4662 10.6393 17.3638 10.6854 17.2511C10.7315 17.1385 10.7547 17.0178 10.7536 16.8961C10.7526 16.7744 10.7273 16.6541 10.6792 16.5422C10.6312 16.4304 10.5614 16.3292 10.4738 16.2447L6.91806 12.6889C6.81547 12.5833 6.72591 12.4657 6.65131 12.3388L21.0833 12.3094C21.3264 12.3094 21.5596 12.2129 21.7315 12.041C21.9034 11.869 22 11.6359 22 11.3928C22 11.1497 21.9034 10.9165 21.7315 10.7446C21.5596 10.5727 21.3264 10.4761 21.0833 10.4761Z" fill="white"/>
</g>
<defs>
<clipPath id="clip0_314_4543">
<rect width="22" height="22" fill="white" transform="translate(0 0.392578)"/>
</clipPath>
</defs>
</svg>
