<svg width="37" height="37" viewBox="0 0 37 37" fill="none" xmlns="http://www.w3.org/2000/svg">
<rect x="0.498047" y="0.417969" width="36" height="36" rx="18" fill="#F1F5F9"/>
<path d="M23.9521 12.5273C25.0912 12.5273 26.0146 13.4508 26.0146 14.5898V22.0898C26.0146 23.2289 25.0912 24.1523 23.9521 24.1523H13.4521C12.3131 24.1523 11.3896 23.2289 11.3896 22.0898V14.5898C11.3896 14.5814 11.3905 14.5729 11.3906 14.5645C11.391 14.557 11.391 14.5495 11.3916 14.542C11.417 13.425 12.3291 12.5274 13.4521 12.5273H23.9521ZM19.0146 19.5576C18.8495 19.6677 18.64 19.682 18.4639 19.5996L18.3896 19.5576L12.5146 15.6406V22.0898C12.5146 22.6076 12.9344 23.0273 13.4521 23.0273H23.9521C24.4699 23.0273 24.8896 22.6076 24.8896 22.0898V15.6406L19.0146 19.5576ZM13.4521 13.6523C13.0298 13.6524 12.6719 13.9315 12.5547 14.3154L18.7021 18.4131L24.8486 14.3154C24.7313 13.9316 24.3744 13.6523 23.9521 13.6523H13.4521Z" fill="#27272A"/>
</svg>
