<svg width="16" height="15" viewBox="0 0 16 15" fill="none" xmlns="http://www.w3.org/2000/svg">
<path d="M8 0.666992C8.27614 0.666992 8.5 0.89085 8.5 1.16699V7H14.334L14.4346 7.00977C14.6622 7.05653 14.834 7.25851 14.834 7.5C14.834 7.74149 14.6622 7.94347 14.4346 7.99023L14.334 8H8.5V13.834C8.49965 14.1098 8.27593 14.334 8 14.334C7.72407 14.334 7.50035 14.1098 7.5 13.834V8H1.66699C1.39085 8 1.16699 7.77614 1.16699 7.5C1.16699 7.22386 1.39085 7 1.66699 7H7.5V1.16699C7.5 0.89085 7.72386 0.666992 8 0.666992Z" fill="white"/>
<path d="M8.5 7H8V7.5H8.5V7ZM14.334 7L14.3823 6.50234L14.3582 6.5H14.334V7ZM14.4346 7.00977L14.5352 6.51999L14.5092 6.51466L14.4829 6.51211L14.4346 7.00977ZM14.4346 7.99023L14.4829 8.48789L14.5092 8.48534L14.5352 8.48001L14.4346 7.99023ZM14.334 8V8.5H14.3582L14.3823 8.49766L14.334 8ZM8.5 8V7.5H8V8H8.5ZM8.5 13.834L9 13.8346V13.834H8.5ZM7.5 13.834H7L7 13.8346L7.5 13.834ZM7.5 8H8V7.5H7.5V8ZM7.5 7V7.5H8V7H7.5ZM8 0.666992V1.16699H8.5H9C9 0.614707 8.55228 0.166992 8 0.166992V0.666992ZM8.5 1.16699H8V7H8.5H9V1.16699H8.5ZM8.5 7V7.5H14.334V7V6.5H8.5V7ZM14.334 7L14.2857 7.49766L14.3863 7.50743L14.4346 7.00977L14.4829 6.51211L14.3823 6.50234L14.334 7ZM14.4346 7.00977L14.334 7.49954L14.334 7.5H14.834H15.334C15.334 7.01618 14.9904 6.61352 14.5352 6.51999L14.4346 7.00977ZM14.834 7.5H14.334L14.334 7.50046L14.4346 7.99023L14.5352 8.48001C14.9904 8.38648 15.334 7.98382 15.334 7.5H14.834ZM14.4346 7.99023L14.3863 7.49257L14.2857 7.50234L14.334 8L14.3823 8.49766L14.4829 8.48789L14.4346 7.99023ZM14.334 8V7.5H8.5V8V8.5H14.334V8ZM8.5 8H8V13.834H8.5H9V8H8.5ZM8.5 13.834L8 13.8333L8 13.834V14.334V14.834C8.5527 14.834 8.9993 14.3855 9 13.8346L8.5 13.834ZM8 14.334V13.834L8 13.8333L7.5 13.834L7 13.8346C7.0007 14.3855 7.4473 14.834 8 14.834V14.334ZM7.5 13.834H8V8H7.5H7V13.834H7.5ZM7.5 8V7.5H1.66699V8V8.5H7.5V8ZM1.66699 8V7.5H1.16699H0.666992C0.666992 8.05228 1.11471 8.5 1.66699 8.5V8ZM1.16699 7.5H1.66699V7V6.5C1.11471 6.5 0.666992 6.94772 0.666992 7.5H1.16699ZM1.66699 7V7.5H7.5V7V6.5H1.66699V7ZM7.5 7H8V1.16699H7.5H7V7H7.5ZM7.5 1.16699H8V0.666992V0.166992C7.44772 0.166992 7 0.614707 7 1.16699H7.5Z" fill="#334155"/>
</svg>
