<svg width="16" height="19" viewBox="0 0 16 19" fill="none" xmlns="http://www.w3.org/2000/svg">
<path d="M14.667 12.833C15.035 12.8332 15.333 13.1319 15.333 13.5V15.5C15.3329 16.972 14.1413 18.166 12.668 18.166H3.32812C1.85347 18.1658 0.667089 16.9704 0.666992 15.5V13.5C0.666992 13.1319 0.964968 12.8332 1.33301 12.833C1.7012 12.833 2 13.1318 2 13.5V15.5C2.0001 16.2383 2.59408 16.8328 3.32812 16.833H12.668C13.4036 16.833 13.9999 16.237 14 15.5V13.5C14 13.1318 14.2988 12.833 14.667 12.833ZM8 0.899414C8.33137 0.899414 8.59961 1.16863 8.59961 1.5V10.7188L11.5762 7.74219C11.8105 7.50807 12.1906 7.50794 12.4248 7.74219C12.6588 7.97646 12.6588 8.35657 12.4248 8.59082L8.4248 12.5908C8.19057 12.8251 7.8105 12.8249 7.57617 12.5908L3.57617 8.59082C3.34186 8.35651 3.34186 7.9765 3.57617 7.74219C3.8105 7.50807 4.19056 7.50794 4.4248 7.74219L7.40039 10.7178V1.5C7.40039 1.16865 7.66866 0.899449 8 0.899414Z" fill="#334155"/>
<path d="M14.667 12.833L14.6672 12.333H14.667V12.833ZM15.333 15.5L15.833 15.5V15.5H15.333ZM3.32812 18.166L3.32806 18.666H3.32812V18.166ZM0.666992 15.5L0.166992 15.5L0.166992 15.5L0.666992 15.5ZM1.33301 12.833L1.33301 12.333L1.33277 12.333L1.33301 12.833ZM2 15.5L1.5 15.5L1.5 15.5001L2 15.5ZM3.32812 16.833L3.328 17.333H3.32812V16.833ZM14 15.5L14.5 15.5001V15.5H14ZM8 0.899414L8 0.399414L7.99995 0.399414L8 0.899414ZM8.59961 10.7188H8.09961V11.9259L8.95316 11.0723L8.59961 10.7188ZM11.5762 7.74219L11.2228 7.38847L11.2226 7.38863L11.5762 7.74219ZM12.4248 7.74219L12.7785 7.38882L12.7784 7.38863L12.4248 7.74219ZM12.4248 8.59082L12.7784 8.94437L12.7785 8.94421L12.4248 8.59082ZM7.57617 12.5908L7.22262 12.9444L7.2228 12.9446L7.57617 12.5908ZM3.57617 8.59082L3.22262 8.94437L3.22262 8.94437L3.57617 8.59082ZM3.57617 7.74219L3.22278 7.38847L3.22262 7.38863L3.57617 7.74219ZM4.4248 7.74219L4.77836 7.38863L4.77836 7.38863L4.4248 7.74219ZM7.40039 10.7178L7.04684 11.0713L7.90039 11.9249V10.7178H7.40039ZM14.667 12.833L14.6668 13.333C14.7581 13.3331 14.833 13.4073 14.833 13.5H15.333H15.833C15.833 12.8565 15.3119 12.3333 14.6672 12.333L14.667 12.833ZM15.333 13.5H14.833V15.5H15.333H15.833V13.5H15.333ZM15.333 15.5L14.833 15.5C14.8329 16.6963 13.8648 17.666 12.668 17.666V18.166V18.666C14.4179 18.666 15.8329 17.2477 15.833 15.5L15.333 15.5ZM12.668 18.166V17.666H3.32812V18.166V18.666H12.668V18.166ZM3.32812 18.166L3.32819 17.666C2.1313 17.6659 1.16707 16.696 1.16699 15.5L0.666992 15.5L0.166992 15.5C0.167107 17.2449 1.57563 18.6658 3.32806 18.666L3.32812 18.166ZM0.666992 15.5H1.16699V13.5H0.666992H0.166992V15.5H0.666992ZM0.666992 13.5H1.16699C1.16699 13.4073 1.24188 13.3331 1.33325 13.333L1.33301 12.833L1.33277 12.333C0.688057 12.3333 0.166992 12.8565 0.166992 13.5H0.666992ZM1.33301 12.833V13.333C1.42506 13.333 1.5 13.408 1.5 13.5H2H2.5C2.5 12.8557 1.97734 12.333 1.33301 12.333V12.833ZM2 13.5H1.5V15.5H2H2.5V13.5H2ZM2 15.5L1.5 15.5001C1.50013 16.5132 2.31661 17.3328 3.328 17.333L3.32812 16.833L3.32825 16.333C2.87154 16.3329 2.50006 15.9634 2.5 15.4999L2 15.5ZM3.32812 16.833V17.333H12.668V16.833V16.333H3.32812V16.833ZM12.668 16.833V17.333C13.68 17.333 14.4999 16.5129 14.5 15.5001L14 15.5L13.5 15.4999C13.4999 15.961 13.1273 16.333 12.668 16.333V16.833ZM14 15.5H14.5V13.5H14H13.5V15.5H14ZM14 13.5H14.5C14.5 13.408 14.5749 13.333 14.667 13.333V12.833V12.333C14.0227 12.333 13.5 12.8557 13.5 13.5H14ZM8 0.899414V1.39941C8.05417 1.39941 8.09961 1.44371 8.09961 1.5H8.59961H9.09961C9.09961 0.893547 8.60857 0.399414 8 0.399414V0.899414ZM8.59961 1.5H8.09961V10.7188H8.59961H9.09961V1.5H8.59961ZM8.59961 10.7188L8.95316 11.0723L11.9297 8.09574L11.5762 7.74219L11.2226 7.38863L8.24606 10.3652L8.59961 10.7188ZM11.5762 7.74219L11.9296 8.0959C11.9688 8.05667 12.0324 8.05691 12.0713 8.09574L12.4248 7.74219L12.7784 7.38863C12.3487 6.95896 11.6522 6.95946 11.2228 7.38847L11.5762 7.74219ZM12.4248 7.74219L12.0711 8.09556C12.1101 8.13463 12.1101 8.19842 12.0711 8.23743L12.4248 8.59082L12.7785 8.94421C13.2076 8.51471 13.2076 7.81828 12.7785 7.38882L12.4248 7.74219ZM12.4248 8.59082L12.0713 8.23727L8.07125 12.2373L8.4248 12.5908L8.77836 12.9444L12.7784 8.94437L12.4248 8.59082ZM8.4248 12.5908L8.07125 12.2373C8.03246 12.2761 7.96884 12.2763 7.92954 12.2371L7.57617 12.5908L7.2228 12.9446C7.65217 13.3735 8.34867 13.3741 8.77836 12.9444L8.4248 12.5908ZM7.57617 12.5908L7.92973 12.2373L3.92973 8.23727L3.57617 8.59082L3.22262 8.94437L7.22262 12.9444L7.57617 12.5908ZM3.57617 8.59082L3.92973 8.23727C3.89067 8.19821 3.89067 8.13479 3.92973 8.09574L3.57617 7.74219L3.22262 7.38863C2.79304 7.81821 2.79304 8.5148 3.22262 8.94437L3.57617 8.59082ZM3.57617 7.74219L3.92957 8.0959C3.96883 8.05667 4.03242 8.05691 4.07125 8.09574L4.4248 7.74219L4.77836 7.38863C4.34869 6.95896 3.65218 6.95946 3.22278 7.38847L3.57617 7.74219ZM4.4248 7.74219L4.07125 8.09574L7.04684 11.0713L7.40039 10.7178L7.75394 10.3642L4.77836 7.38863L4.4248 7.74219ZM7.40039 10.7178H7.90039V1.5H7.40039H6.90039V10.7178H7.40039ZM7.40039 1.5H7.90039C7.90039 1.44379 7.94582 1.39942 8.00005 1.39941L8 0.899414L7.99995 0.399414C7.3915 0.399479 6.90039 0.893516 6.90039 1.5H7.40039Z" fill="#334155"/>
</svg>
