<svg width="21" height="20" viewBox="0 0 21 20" fill="none" xmlns="http://www.w3.org/2000/svg">
<path d="M10.3328 4.16699C14.5249 4.16699 18.0102 6.40671 20.0906 9.73535C20.1917 9.89745 20.1918 10.1036 20.0906 10.2656C18.0101 13.594 14.5247 15.834 10.3328 15.834C6.14099 15.8338 2.65627 13.5939 0.575915 10.2656C0.474637 10.1036 0.474752 9.89744 0.575915 9.73535C2.65624 6.40686 6.14082 4.16714 10.3328 4.16699ZM10.3328 5.16699C6.63565 5.16714 3.52795 7.07761 1.59349 10C3.52793 12.9225 6.63553 14.8338 10.3328 14.834C14.0298 14.834 17.1365 12.9222 19.071 10C17.1365 7.07792 14.0297 5.16699 10.3328 5.16699ZM10.3328 7.33301C11.8055 7.33301 12.9997 8.52724 12.9997 10C12.9997 11.4728 11.8055 12.667 10.3328 12.667C8.86018 12.6668 7.66674 11.4726 7.66674 10C7.66674 8.52738 8.86018 7.33323 10.3328 7.33301Z" fill="black"/>
<path d="M10.3328 4.16699V3.91699H10.3327L10.3328 4.16699ZM20.0906 9.73535L20.3026 9.60299L20.3026 9.60285L20.0906 9.73535ZM20.0906 10.2656L20.3026 10.3981L20.3026 10.3981L20.0906 10.2656ZM10.3328 15.834L10.3327 16.084H10.3328V15.834ZM0.575915 10.2656L0.363916 10.3981L0.363921 10.3981L0.575915 10.2656ZM0.575915 9.73535L0.363916 9.60285L0.36383 9.60299L0.575915 9.73535ZM10.3328 5.16699V4.91699H10.3327L10.3328 5.16699ZM1.59349 10L1.38503 9.86201L1.29369 10L1.38502 10.138L1.59349 10ZM10.3328 14.834L10.3327 15.084H10.3328V14.834ZM19.071 10L19.2795 10.138L19.3709 10L19.2795 9.86199L19.071 10ZM10.3328 7.33301V7.08301H10.3327L10.3328 7.33301ZM12.9997 10H13.2497H12.9997ZM10.3328 12.667L10.3327 12.917H10.3328V12.667ZM7.66674 10H7.41674H7.66674ZM10.3328 4.16699V4.41699C14.4288 4.41699 17.8384 6.60349 19.8786 9.86785L20.0906 9.73535L20.3026 9.60285C18.182 6.20993 14.621 3.91699 10.3328 3.91699V4.16699ZM20.0906 9.73535L19.8785 9.86772C19.9292 9.94892 19.9291 10.0523 19.8786 10.1331L20.0906 10.2656L20.3026 10.3981C20.4546 10.1549 20.4543 9.84597 20.3026 9.60299L20.0906 9.73535ZM20.0906 10.2656L19.8786 10.1331C17.8383 13.3972 14.4286 15.584 10.3328 15.584V15.834V16.084C14.6208 16.084 18.182 13.7908 20.3026 10.3981L20.0906 10.2656ZM10.3328 15.834L10.3328 15.584C6.23712 15.5838 2.8281 13.3971 0.787909 10.1331L0.575915 10.2656L0.363921 10.3981C2.48444 13.7906 6.04486 16.0838 10.3327 16.084L10.3328 15.834ZM0.575915 10.2656L0.787914 10.1331C0.737373 10.0523 0.737322 9.94892 0.788 9.86771L0.575915 9.73535L0.36383 9.60299C0.212183 9.84597 0.211902 10.1549 0.363916 10.3981L0.575915 10.2656ZM0.575915 9.73535L0.787914 9.86785C2.82807 6.60362 6.23695 4.41714 10.3328 4.41699L10.3328 4.16699L10.3327 3.91699C6.0447 3.91714 2.48441 6.21009 0.363916 9.60285L0.575915 9.73535ZM10.3328 5.16699L10.3327 4.91699C6.54274 4.91714 3.36056 6.87756 1.38503 9.86201L1.59349 10L1.80196 10.138C3.69533 7.27766 6.72857 5.41713 10.3328 5.41699L10.3328 5.16699ZM1.59349 10L1.38502 10.138C3.36052 13.1225 6.54257 15.0838 10.3327 15.084L10.3328 14.834L10.3328 14.584C6.72849 14.5838 3.69535 12.7225 1.80196 9.86201L1.59349 10ZM10.3328 14.834V15.084C14.1228 15.084 17.3039 13.1221 19.2795 10.138L19.071 10L18.8626 9.862C16.969 12.7222 13.9368 14.584 10.3328 14.584V14.834ZM19.071 10L19.2795 9.86199C17.3039 6.87791 14.1227 4.91699 10.3328 4.91699V5.16699V5.41699C13.9368 5.41699 16.9691 7.27793 18.8626 10.138L19.071 10ZM10.3328 7.33301V7.58301C11.6674 7.58301 12.7497 8.66531 12.7497 10H12.9997H13.2497C13.2497 8.38917 11.9436 7.08301 10.3328 7.08301V7.33301ZM12.9997 10H12.7497C12.7497 11.3347 11.6674 12.417 10.3328 12.417V12.667V12.917C11.9436 12.917 13.2497 11.6108 13.2497 10H12.9997ZM10.3328 12.667L10.3328 12.417C8.99834 12.4168 7.91674 11.3346 7.91674 10H7.66674H7.41674C7.41674 11.6106 8.72202 12.9167 10.3327 12.917L10.3328 12.667ZM7.66674 10H7.91674C7.91674 8.66537 8.99834 7.58321 10.3328 7.58301L10.3328 7.33301L10.3327 7.08301C8.72202 7.08325 7.41674 8.38939 7.41674 10H7.66674Z" fill="black"/>
</svg>
