<svg width="22" height="23" viewBox="0 0 22 23" fill="none" xmlns="http://www.w3.org/2000/svg">
<path d="M10.0831 10.7701C10.0831 11.2761 9.67244 11.6867 9.16644 11.6867H5.49978C4.99378 11.6867 4.58311 11.2761 4.58311 10.7701C4.58311 10.2641 4.99378 9.8534 5.49978 9.8534H9.16644C9.67244 9.8534 10.0831 10.2641 10.0831 10.7701ZM5.49978 6.18673C4.99378 6.18673 4.58311 6.5974 4.58311 7.1034C4.58311 7.6094 4.99378 8.02006 5.49978 8.02006H12.8331C13.3391 8.02006 13.7498 7.6094 13.7498 7.1034C13.7498 6.5974 13.3391 6.18673 12.8331 6.18673H5.49978ZM8.29378 19.9147C6.26611 19.8166 4.34019 19.4078 3.43453 19.1906C3.21728 18.02 2.74978 15.0986 2.74978 11.6858C2.74978 8.27306 3.21728 5.35256 3.43453 4.18106C4.46853 3.93265 6.83536 3.43581 9.16644 3.43581C11.4975 3.43581 13.8644 3.93356 14.8984 4.18106C15.034 4.91073 15.2669 6.32056 15.4227 8.09798C15.4667 8.60215 15.9113 8.9789 16.4154 8.93123C16.9196 8.88723 17.2936 8.44265 17.2487 7.93848C17.0085 5.18481 16.5969 3.31481 16.5795 3.23598C16.5062 2.9069 16.2578 2.64381 15.9324 2.55215C15.7949 2.51365 12.5132 1.60156 9.16553 1.60156C5.81786 1.60156 2.53803 2.51548 2.39961 2.55398C2.07419 2.64565 1.82578 2.90873 1.75244 3.23781C1.71761 3.3909 0.915527 7.05573 0.915527 11.6867C0.915527 16.3177 1.71761 19.9816 1.75244 20.1356C1.82578 20.4647 2.07419 20.7278 2.39961 20.8195C2.51328 20.8516 5.20919 21.6014 8.20486 21.7462C8.70536 21.7719 9.14169 21.3814 9.16461 20.8745C9.18844 20.3685 8.79886 19.9386 8.29286 19.9147H8.29378ZM7.33311 15.3534C7.83911 15.3534 8.24978 14.9427 8.24978 14.4367C8.24978 13.9307 7.83911 13.5201 7.33311 13.5201H5.49978C4.99378 13.5201 4.58311 13.9307 4.58311 14.4367C4.58311 14.9427 4.99378 15.3534 5.49978 15.3534H7.33311ZM21.0831 16.2701C21.0831 20.0733 19.3864 21.7701 15.5831 21.7701C11.7799 21.7701 10.0831 20.0733 10.0831 16.2701C10.0831 12.4668 11.7799 10.7701 15.5831 10.7701C19.3864 10.7701 21.0831 12.4668 21.0831 16.2701ZM19.2498 16.2701C19.2498 13.4944 18.3588 12.6034 15.5831 12.6034C12.8074 12.6034 11.9164 13.4944 11.9164 16.2701C11.9164 19.0457 12.8074 19.9367 15.5831 19.9367C18.3588 19.9367 19.2498 19.0457 19.2498 16.2701ZM16.7134 14.885C16.2321 15.4597 15.6995 15.9923 15.1248 16.4754C14.8718 16.2627 14.6261 16.04 14.3914 15.8099C14.0303 15.4561 13.4509 15.4616 13.0944 15.8227C12.7405 16.1848 12.746 16.7651 13.1072 17.1189C13.5664 17.569 14.0605 17.9934 14.5748 18.3793C14.7379 18.5012 14.9314 18.5626 15.1248 18.5626C15.3182 18.5626 15.5116 18.5012 15.6748 18.3793C16.5749 17.7037 17.3981 16.9246 18.1195 16.0629C18.444 15.6751 18.3936 15.0967 18.0049 14.7713C17.6163 14.4468 17.0379 14.4954 16.7134 14.885Z" fill="#64748B"/>
</svg>
