<svg width="22" height="23" viewBox="0 0 22 23" fill="none" xmlns="http://www.w3.org/2000/svg">
<g clip-path="url(#clip0_1311_20375)">
<path d="M10.9985 0.886719C15.024 0.886719 18.9687 1.85535 19.144 1.89844L19.146 1.89941C19.3187 1.94318 19.4658 2.0526 19.5571 2.20215H19.5767L19.6226 2.33887C19.6714 2.48546 20.6558 5.50247 20.6558 11.4873C20.6557 17.4695 19.6721 20.486 19.6226 20.6348L19.6216 20.6357C19.5478 20.853 19.3697 21.0188 19.147 21.0752H19.145C18.9707 21.118 15.0256 22.0869 10.9995 22.0869C6.97025 22.0868 3.02222 21.1165 2.854 21.0752H2.85303C2.63103 21.019 2.45039 20.8536 2.37744 20.6348C2.32807 20.4866 1.34428 17.4702 1.34424 11.4873C1.34424 5.50185 2.32878 2.48488 2.37744 2.33887L2.37842 2.33789C2.45217 2.12066 2.63034 1.9558 2.85303 1.89941L2.854 1.89844C3.02221 1.85711 6.96928 0.88679 10.9985 0.886719ZM2.83057 7.90527C2.74825 8.94703 2.69092 10.129 2.69092 11.4873C2.69095 16.105 3.3069 18.9128 3.5542 19.8545C4.6322 20.0932 7.83868 20.7412 10.9995 20.7412C14.1599 20.7412 17.3664 20.0941 18.4448 19.8545C18.6921 18.913 19.309 16.1053 19.3091 11.4873C19.3091 10.1292 19.2511 8.94719 19.1694 7.90527H2.83057ZM10.5269 14.123C10.8982 14.123 11.1997 14.4245 11.1997 14.7959C11.1997 15.1673 10.8983 15.4688 10.5269 15.4688H5.80029C5.42889 15.4688 5.12744 15.1673 5.12744 14.7959C5.1275 14.4245 5.42893 14.123 5.80029 14.123H10.5269ZM16.1997 10.3418C16.5711 10.3418 16.8726 10.6432 16.8726 11.0146C16.8723 11.3858 16.571 11.6865 16.1997 11.6865H5.80029C5.42904 11.6865 5.12769 11.3858 5.12744 11.0146C5.12744 10.6432 5.42889 10.3418 5.80029 10.3418H16.1997ZM10.9995 2.23242C7.83963 2.23248 4.63393 2.87853 3.55518 3.11816C3.41436 3.65683 3.15318 4.81098 2.95459 6.55957H19.0444C18.8458 4.81082 18.5846 3.65673 18.4438 3.11816C17.3639 2.87906 14.1586 2.23242 10.9995 2.23242Z" fill="#64748B" stroke="#64748B" stroke-width="0.4"/>
</g>
<defs>
<clipPath id="clip0_1311_20375">
<rect width="22" height="22" fill="white" transform="translate(0 0.686523)"/>
</clipPath>
</defs>
</svg>
