<svg width="22" height="23" viewBox="0 0 22 23" fill="none" xmlns="http://www.w3.org/2000/svg">
<g clip-path="url(#clip0_176_4975)">
<path d="M19.2507 14.5472V8.71996C19.61 8.58979 19.9492 8.38904 20.237 8.10121L21.6707 6.66754C22.7202 5.61796 22.7202 3.91112 21.6707 2.86246L20.237 1.42879C19.1865 0.378289 17.4797 0.380122 16.4319 1.42879L14.9982 2.86246C14.715 3.14571 14.5115 3.48304 14.3795 3.84879H8.58432C8.14798 2.04021 6.5264 0.687206 4.5849 0.687206C2.30973 0.686289 0.458984 2.53704 0.458984 4.81129C0.458984 6.60154 1.61215 8.11312 3.20898 8.68329V15.353H3.02657C1.61123 15.353 0.458984 16.5043 0.458984 17.9196V20.1196C0.458984 21.535 1.61123 22.6863 3.02657 22.6863H5.22565C6.64098 22.6863 7.79232 21.535 7.79232 20.1196V17.9196C7.79232 16.5043 6.64098 15.353 5.22565 15.353H5.04232V8.88954C6.80873 8.69062 8.24332 7.39079 8.61273 5.68029H14.3786C14.5106 6.04604 14.7141 6.38337 14.9973 6.66662L16.431 8.10029C16.7188 8.38812 17.0571 8.58887 17.4164 8.71904V14.5463C15.5831 14.9652 14.2081 16.6015 14.2081 18.5604C14.2081 20.8346 16.0588 22.6854 18.3331 22.6854C20.6073 22.6854 22.4581 20.8346 22.4581 18.5604C22.4581 16.6015 21.0831 14.9652 19.2497 14.5463L19.2507 14.5472ZM5.95898 17.9196V20.1196C5.95898 20.5239 5.63082 20.853 5.22565 20.853H3.02657C2.62232 20.853 2.29232 20.5248 2.29232 20.1196V17.9196C2.29232 17.5154 2.6214 17.1863 3.02657 17.1863H5.22565C5.6299 17.1863 5.95898 17.5145 5.95898 17.9196ZM4.58398 7.10296C3.3199 7.10296 2.29232 6.07446 2.29232 4.81129C2.29232 3.54812 3.3199 2.51962 4.58398 2.51962C5.84807 2.51962 6.87565 3.54812 6.87565 4.81129C6.87565 6.07446 5.84807 7.10296 4.58398 7.10296ZM16.2935 5.37046C16.1312 5.20821 16.0432 4.99279 16.0432 4.76362C16.0432 4.53446 16.1322 4.31904 16.2935 4.15679L17.7271 2.72312C17.8894 2.56087 18.1048 2.47196 18.334 2.47196C18.5632 2.47196 18.7777 2.56087 18.9399 2.72312L20.3736 4.15679C20.5358 4.31904 20.6247 4.53446 20.6247 4.76362C20.6247 4.99279 20.5349 5.20821 20.3736 5.37046L18.9399 6.80412C18.6154 7.12862 18.0498 7.12771 17.7271 6.80412L16.2935 5.37046ZM18.334 20.853C17.0699 20.853 16.0423 19.8254 16.0423 18.5613C16.0423 17.2972 17.0699 16.2696 18.334 16.2696C19.5981 16.2696 20.6257 17.2972 20.6257 18.5613C20.6257 19.8254 19.5981 20.853 18.334 20.853Z" fill="#64748B"/>
</g>
<defs>
<clipPath id="clip0_176_4975">
<rect width="22" height="22" fill="white" transform="translate(0 0.686523)"/>
</clipPath>
</defs>
</svg>
