<svg width="23" height="23" viewBox="0 0 23 23" fill="none" xmlns="http://www.w3.org/2000/svg">
<g clip-path="url(#clip0_151_5285)">
<path d="M19.6286 14.0247V8.19749C19.9879 8.06733 20.3271 7.86658 20.6149 7.57874L22.0486 6.14508C23.0982 5.0955 23.0982 3.38866 22.0486 2.34L20.6149 0.906328C19.5644 -0.144172 17.8576 -0.142338 16.8098 0.906328L15.3762 2.34C15.0929 2.62325 14.8894 2.96058 14.7574 3.32633H8.96225C8.52591 1.51774 6.90433 0.164745 4.96283 0.164745C2.68766 0.163828 0.836914 2.01458 0.836914 4.28883C0.836914 6.07908 1.99008 7.59066 3.58691 8.16083V14.8305H3.4045C1.98916 14.8305 0.836914 15.9818 0.836914 17.3972V19.5972C0.836914 21.0125 1.98916 22.1638 3.4045 22.1638H5.60358C7.01891 22.1638 8.17025 21.0125 8.17025 19.5972V17.3972C8.17025 15.9818 7.01891 14.8305 5.60358 14.8305H5.42025V8.36708C7.18666 8.16816 8.62125 6.86833 8.99066 5.15783H14.7565C14.8885 5.52358 15.092 5.86091 15.3752 6.14416L16.8089 7.57783C17.0967 7.86566 17.435 8.06641 17.7943 8.19658V14.0238C15.961 14.4427 14.586 16.079 14.586 18.0379C14.586 20.3122 16.4367 22.1629 18.711 22.1629C20.9852 22.1629 22.836 20.3122 22.836 18.0379C22.836 16.079 21.461 14.4427 19.6277 14.0238L19.6286 14.0247ZM6.33691 17.3972V19.5972C6.33691 20.0014 6.00875 20.3305 5.60358 20.3305H3.4045C3.00025 20.3305 2.67025 20.0023 2.67025 19.5972V17.3972C2.67025 16.9929 2.99933 16.6638 3.4045 16.6638H5.60358C6.00783 16.6638 6.33691 16.992 6.33691 17.3972ZM4.96191 6.5805C3.69783 6.5805 2.67025 5.552 2.67025 4.28883C2.67025 3.02566 3.69783 1.99716 4.96191 1.99716C6.226 1.99716 7.25358 3.02566 7.25358 4.28883C7.25358 5.552 6.226 6.5805 4.96191 6.5805ZM16.6714 4.848C16.5092 4.68575 16.4212 4.47033 16.4212 4.24116C16.4212 4.012 16.5101 3.79658 16.6714 3.63433L18.1051 2.20066C18.2673 2.03841 18.4827 1.94949 18.7119 1.94949C18.9411 1.94949 19.1556 2.03841 19.3178 2.20066L20.7515 3.63433C20.9137 3.79658 21.0027 4.012 21.0027 4.24116C21.0027 4.47033 20.9128 4.68575 20.7515 4.848L19.3178 6.28166C18.9933 6.60616 18.4277 6.60525 18.1051 6.28166L16.6714 4.848ZM18.7119 20.3305C17.4478 20.3305 16.4202 19.3029 16.4202 18.0388C16.4202 16.7747 17.4478 15.7472 18.7119 15.7472C19.976 15.7472 21.0036 16.7747 21.0036 18.0388C21.0036 19.3029 19.976 20.3305 18.7119 20.3305Z" fill="white"/>
</g>
<defs>
<clipPath id="clip0_151_5285">
<rect width="22" height="22" fill="white" transform="translate(0.835449 0.164062)"/>
</clipPath>
</defs>
</svg>
