<svg width="22" height="23" viewBox="0 0 22 23" fill="none" xmlns="http://www.w3.org/2000/svg">
<g clip-path="url(#clip0_1311_20360)">
<path d="M6.41667 0.686523H3.66667C2.69421 0.686523 1.76158 1.07283 1.07394 1.76047C0.386309 2.4481 0 3.38073 0 4.35319L0 7.10319C0 8.07565 0.386309 9.00828 1.07394 9.69592C1.76158 10.3835 2.69421 10.7699 3.66667 10.7699H6.41667C7.38913 10.7699 8.32176 10.3835 9.00939 9.69592C9.69703 9.00828 10.0833 8.07565 10.0833 7.10319V4.35319C10.0833 3.38073 9.69703 2.4481 9.00939 1.76047C8.32176 1.07283 7.38913 0.686523 6.41667 0.686523ZM8.25 7.10319C8.25 7.58942 8.05685 8.05574 7.71303 8.39955C7.36921 8.74337 6.9029 8.93652 6.41667 8.93652H3.66667C3.18044 8.93652 2.71412 8.74337 2.3703 8.39955C2.02649 8.05574 1.83333 7.58942 1.83333 7.10319V4.35319C1.83333 3.86696 2.02649 3.40064 2.3703 3.05683C2.71412 2.71301 3.18044 2.51986 3.66667 2.51986H6.41667C6.9029 2.51986 7.36921 2.71301 7.71303 3.05683C8.05685 3.40064 8.25 3.86696 8.25 4.35319V7.10319Z" fill="#E8EEF4"/>
<path d="M18.3337 0.686523H15.5837C14.6112 0.686523 13.6786 1.07283 12.9909 1.76047C12.3033 2.4481 11.917 3.38073 11.917 4.35319V7.10319C11.917 8.07565 12.3033 9.00828 12.9909 9.69592C13.6786 10.3835 14.6112 10.7699 15.5837 10.7699H18.3337C19.3061 10.7699 20.2388 10.3835 20.9264 9.69592C21.614 9.00828 22.0003 8.07565 22.0003 7.10319V4.35319C22.0003 3.38073 21.614 2.4481 20.9264 1.76047C20.2388 1.07283 19.3061 0.686523 18.3337 0.686523ZM20.167 7.10319C20.167 7.58942 19.9738 8.05574 19.63 8.39955C19.2862 8.74337 18.8199 8.93652 18.3337 8.93652H15.5837C15.0974 8.93652 14.6311 8.74337 14.2873 8.39955C13.9435 8.05574 13.7503 7.58942 13.7503 7.10319V4.35319C13.7503 3.86696 13.9435 3.40064 14.2873 3.05683C14.6311 2.71301 15.0974 2.51986 15.5837 2.51986H18.3337C18.8199 2.51986 19.2862 2.71301 19.63 3.05683C19.9738 3.40064 20.167 3.86696 20.167 4.35319V7.10319Z" fill="#E8EEF4"/>
<path d="M6.41667 12.6025H3.66667C2.69421 12.6025 1.76158 12.9888 1.07394 13.6765C0.386309 14.3641 0 15.2967 0 16.2692L0 19.0192C0 19.9917 0.386309 20.9243 1.07394 21.6119C1.76158 22.2996 2.69421 22.6859 3.66667 22.6859H6.41667C7.38913 22.6859 8.32176 22.2996 9.00939 21.6119C9.69703 20.9243 10.0833 19.9917 10.0833 19.0192V16.2692C10.0833 15.2967 9.69703 14.3641 9.00939 13.6765C8.32176 12.9888 7.38913 12.6025 6.41667 12.6025ZM8.25 19.0192C8.25 19.5054 8.05685 19.9718 7.71303 20.3156C7.36921 20.6594 6.9029 20.8525 6.41667 20.8525H3.66667C3.18044 20.8525 2.71412 20.6594 2.3703 20.3156C2.02649 19.9718 1.83333 19.5054 1.83333 19.0192V16.2692C1.83333 15.783 2.02649 15.3167 2.3703 14.9728C2.71412 14.629 3.18044 14.4359 3.66667 14.4359H6.41667C6.9029 14.4359 7.36921 14.629 7.71303 14.9728C8.05685 15.3167 8.25 15.783 8.25 16.2692V19.0192Z" fill="#E8EEF4"/>
<path d="M18.3337 12.6025H15.5837C14.6112 12.6025 13.6786 12.9888 12.9909 13.6765C12.3033 14.3641 11.917 15.2967 11.917 16.2692V19.0192C11.917 19.9917 12.3033 20.9243 12.9909 21.6119C13.6786 22.2996 14.6112 22.6859 15.5837 22.6859H18.3337C19.3061 22.6859 20.2388 22.2996 20.9264 21.6119C21.614 20.9243 22.0003 19.9917 22.0003 19.0192V16.2692C22.0003 15.2967 21.614 14.3641 20.9264 13.6765C20.2388 12.9888 19.3061 12.6025 18.3337 12.6025ZM20.167 19.0192C20.167 19.5054 19.9738 19.9718 19.63 20.3156C19.2862 20.6594 18.8199 20.8525 18.3337 20.8525H15.5837C15.0974 20.8525 14.6311 20.6594 14.2873 20.3156C13.9435 19.9718 13.7503 19.5054 13.7503 19.0192V16.2692C13.7503 15.783 13.9435 15.3167 14.2873 14.9728C14.6311 14.629 15.0974 14.4359 15.5837 14.4359H18.3337C18.8199 14.4359 19.2862 14.629 19.63 14.9728C19.9738 15.3167 20.167 15.783 20.167 16.2692V19.0192Z" fill="#E8EEF4"/>
</g>
<defs>
<clipPath id="clip0_1311_20360">
<rect width="22" height="22" fill="white" transform="translate(0 0.686523)"/>
</clipPath>
</defs>
</svg>
