<svg width="24" height="25" viewBox="0 0 24 25" fill="none" xmlns="http://www.w3.org/2000/svg">
<g clip-path="url(#clip0_1412_16403)">
<path d="M12 17.0986C11.2089 17.0986 10.4355 16.864 9.77772 16.4245C9.11992 15.985 8.60723 15.3603 8.30448 14.6294C8.00173 13.8985 7.92252 13.0942 8.07686 12.3183C8.2312 11.5424 8.61216 10.8296 9.17157 10.2702C9.73098 9.7108 10.4437 9.32984 11.2196 9.17549C11.9956 9.02115 12.7998 9.10037 13.5307 9.40312C14.2616 9.70587 14.8864 10.2186 15.3259 10.8764C15.7654 11.5342 16 12.3075 16 13.0986C16 14.1595 15.5786 15.1769 14.8284 15.9271C14.0783 16.6772 13.0609 17.0986 12 17.0986ZM12 11.0986C11.6044 11.0986 11.2178 11.2159 10.8889 11.4357C10.56 11.6555 10.3036 11.9678 10.1522 12.3333C10.0009 12.6987 9.96126 13.1009 10.0384 13.4888C10.1156 13.8768 10.3061 14.2331 10.5858 14.5128C10.8655 14.7926 11.2219 14.983 11.6098 15.0602C11.9978 15.1374 12.3999 15.0978 12.7654 14.9464C13.1308 14.795 13.4432 14.5387 13.6629 14.2098C13.8827 13.8809 14 13.4942 14 13.0986C14 12.5682 13.7893 12.0595 13.4142 11.6844C13.0391 11.3094 12.5304 11.0986 12 11.0986ZM18 24.0986C18 22.5073 17.3679 20.9812 16.2426 19.856C15.1174 18.7308 13.5913 18.0986 12 18.0986C10.4087 18.0986 8.88258 18.7308 7.75736 19.856C6.63214 20.9812 6 22.5073 6 24.0986C6 24.3639 6.10536 24.6182 6.29289 24.8057C6.48043 24.9933 6.73478 25.0986 7 25.0986C7.26522 25.0986 7.51957 24.9933 7.70711 24.8057C7.89464 24.6182 8 24.3639 8 24.0986C8 23.0378 8.42143 22.0204 9.17157 21.2702C9.92172 20.5201 10.9391 20.0986 12 20.0986C13.0609 20.0986 14.0783 20.5201 14.8284 21.2702C15.5786 22.0204 16 23.0378 16 24.0986C16 24.3639 16.1054 24.6182 16.2929 24.8057C16.4804 24.9933 16.7348 25.0986 17 25.0986C17.2652 25.0986 17.5196 24.9933 17.7071 24.8057C17.8946 24.6182 18 24.3639 18 24.0986ZM18 9.09864C17.2089 9.09864 16.4355 8.86404 15.7777 8.42451C15.1199 7.98499 14.6072 7.36027 14.3045 6.62937C14.0017 5.89846 13.9225 5.0942 14.0769 4.31827C14.2312 3.54235 14.6122 2.82962 15.1716 2.27021C15.731 1.7108 16.4437 1.32983 17.2196 1.17549C17.9956 1.02115 18.7998 1.10037 19.5307 1.40312C20.2616 1.70587 20.8864 2.21856 21.3259 2.87635C21.7654 3.53415 22 4.30751 22 5.09864C22 6.1595 21.5786 7.17692 20.8284 7.92706C20.0783 8.67721 19.0609 9.09864 18 9.09864ZM18 3.09863C17.6044 3.09863 17.2178 3.21593 16.8889 3.4357C16.56 3.65546 16.3036 3.96782 16.1522 4.33327C16.0009 4.69872 15.9613 5.10085 16.0384 5.48882C16.1156 5.87678 16.3061 6.23314 16.5858 6.51285C16.8655 6.79255 17.2219 6.98304 17.6098 7.06021C17.9978 7.13738 18.3999 7.09777 18.7654 6.94639C19.1308 6.79502 19.4432 6.53867 19.6629 6.20978C19.8827 5.88088 20 5.4942 20 5.09864C20 4.5682 19.7893 4.05949 19.4142 3.68442C19.0391 3.30935 18.5304 3.09863 18 3.09863ZM24 16.0986C23.9984 14.5078 23.3658 12.9826 22.2409 11.8577C21.116 10.7329 19.5908 10.1002 18 10.0986C17.7348 10.0986 17.4804 10.204 17.2929 10.3915C17.1054 10.5791 17 10.8334 17 11.0986C17 11.3639 17.1054 11.6182 17.2929 11.8057C17.4804 11.9933 17.7348 12.0986 18 12.0986C19.0609 12.0986 20.0783 12.5201 20.8284 13.2702C21.5786 14.0204 22 15.0378 22 16.0986C22 16.3639 22.1054 16.6182 22.2929 16.8057C22.4804 16.9933 22.7348 17.0986 23 17.0986C23.2652 17.0986 23.5196 16.9933 23.7071 16.8057C23.8946 16.6182 24 16.3639 24 16.0986ZM6 9.09864C5.20887 9.09864 4.43552 8.86404 3.77772 8.42451C3.11992 7.98499 2.60723 7.36027 2.30448 6.62937C2.00173 5.89846 1.92252 5.0942 2.07686 4.31827C2.2312 3.54235 2.61216 2.82962 3.17157 2.27021C3.73098 1.7108 4.44371 1.32983 5.21964 1.17549C5.99556 1.02115 6.79983 1.10037 7.53073 1.40312C8.26164 1.70587 8.88635 2.21856 9.32588 2.87635C9.7654 3.53415 10 4.30751 10 5.09864C10 6.1595 9.57857 7.17692 8.82843 7.92706C8.07828 8.67721 7.06087 9.09864 6 9.09864ZM6 3.09863C5.60444 3.09863 5.21776 3.21593 4.88886 3.4357C4.55996 3.65546 4.30362 3.96782 4.15224 4.33327C4.00087 4.69872 3.96126 5.10085 4.03843 5.48882C4.1156 5.87678 4.30608 6.23314 4.58579 6.51285C4.86549 6.79255 5.22186 6.98304 5.60982 7.06021C5.99778 7.13738 6.39991 7.09777 6.76537 6.94639C7.13082 6.79502 7.44318 6.53867 7.66294 6.20978C7.8827 5.88088 8 5.4942 8 5.09864C8 4.5682 7.78929 4.05949 7.41421 3.68442C7.03914 3.30935 6.53043 3.09863 6 3.09863ZM2 16.0986C2 15.0378 2.42143 14.0204 3.17157 13.2702C3.92172 12.5201 4.93913 12.0986 6 12.0986C6.26522 12.0986 6.51957 11.9933 6.70711 11.8057C6.89464 11.6182 7 11.3639 7 11.0986C7 10.8334 6.89464 10.5791 6.70711 10.3915C6.51957 10.204 6.26522 10.0986 6 10.0986C4.40919 10.1002 2.88399 10.7329 1.75911 11.8577C0.63424 12.9826 0.00158843 14.5078 0 16.0986C0 16.3639 0.105357 16.6182 0.292893 16.8057C0.48043 16.9933 0.734784 17.0986 1 17.0986C1.26522 17.0986 1.51957 16.9933 1.70711 16.8057C1.89464 16.6182 2 16.3639 2 16.0986Z" fill="white"/>
</g>
<defs>
<clipPath id="clip0_1412_16403">
<rect width="24" height="24" fill="white" transform="translate(0 0.686523)"/>
</clipPath>
</defs>
</svg>
