<svg width="22" height="23" viewBox="0 0 22 23" fill="none" xmlns="http://www.w3.org/2000/svg">
<g clip-path="url(#clip0_1311_20371)">
<path d="M11 0.936523C5.07227 0.936523 0.25 5.75879 0.25 11.6865C0.25 17.6143 5.07227 22.4365 11 22.4365C16.9277 22.4365 21.75 17.6143 21.75 11.6865C21.75 5.75879 16.9277 0.936523 11 0.936523ZM11 20.6449C6.06037 20.6449 2.04167 16.6261 2.04167 11.6865C2.04167 6.7469 6.06037 2.72819 11 2.72819C15.9396 2.72819 19.9583 6.7469 19.9583 11.6865C19.9583 16.6261 15.9396 20.6449 11 20.6449ZM14.5833 13.4782C14.5833 14.9599 13.3775 16.1657 11.8958 16.1657V17.0615C11.8958 17.5569 11.4954 17.9574 11 17.9574C10.5046 17.9574 10.1042 17.5569 10.1042 17.0615V16.1657H9.86408C8.90823 16.1657 8.01598 15.6515 7.53671 14.8228C7.28856 14.3937 7.43548 13.8464 7.86279 13.5991C8.2919 13.3492 8.84015 13.4979 9.0865 13.9252C9.24685 14.2029 9.54427 14.374 9.86319 14.374H11.8949C12.3894 14.374 12.7908 13.9727 12.7908 13.4782C12.7908 13.1396 12.548 12.8529 12.2139 12.7974L9.48962 12.3432C8.28742 12.1434 7.41577 11.1132 7.41577 9.89486C7.41577 8.41315 8.62156 7.20736 10.1033 7.20736V6.31152C10.1033 5.81702 10.5037 5.41569 10.9991 5.41569C11.4945 5.41569 11.8949 5.81702 11.8949 6.31152V7.20736H12.135C13.0909 7.20736 13.9831 7.72246 14.4624 8.55111C14.7105 8.97931 14.5636 9.52667 14.1363 9.77482C13.7063 10.023 13.159 9.87604 12.9126 9.44784C12.7522 9.17102 12.4548 8.99992 12.1359 8.99992H10.1042C9.60967 8.99992 9.20833 9.40215 9.20833 9.89575C9.20833 10.2344 9.4511 10.521 9.78525 10.5766L12.5095 11.0308C13.7117 11.2305 14.5833 12.2608 14.5833 13.4791V13.4782Z" fill="#64748B"/>
</g>
<defs>
<clipPath id="clip0_1311_20371">
<rect width="22" height="22" fill="white" transform="translate(0 0.686523)"/>
</clipPath>
</defs>
</svg>
