<svg width="22" height="23" viewBox="0 0 22 23" fill="none" xmlns="http://www.w3.org/2000/svg">
<g clip-path="url(#clip0_1398_16739)">
<path d="M18.7765 14.5639V8.7485C19.1351 8.6186 19.4736 8.41826 19.7609 8.13101L21.1916 6.70025C22.2391 5.65279 22.2391 3.94942 21.1916 2.90288L19.7609 1.47212C18.7125 0.423745 17.0091 0.425574 15.9635 1.47212L14.5327 2.90288C14.2501 3.18555 14.047 3.5222 13.9152 3.88721H8.13181C7.69636 2.08229 6.07807 0.732035 4.1405 0.732035C1.86995 0.731121 0.0229492 2.57812 0.0229492 4.84776C0.0229492 6.63438 1.17378 8.1429 2.76737 8.71191V15.3681H2.58533C1.17286 15.3681 0.0229492 16.5171 0.0229492 17.9295V20.1251C0.0229492 21.5375 1.17286 22.6865 2.58533 22.6865H4.77995C6.19242 22.6865 7.34142 21.5375 7.34142 20.1251V17.9295C7.34142 16.5171 6.19242 15.3681 4.77995 15.3681H4.59699V8.91774C6.35983 8.71923 7.7915 7.42203 8.16017 5.715H13.9143C14.046 6.08001 14.2491 6.41666 14.5318 6.69933L15.9626 8.13009C16.2498 8.41734 16.5874 8.61768 16.946 8.74759V14.563C15.1164 14.9811 13.7442 16.614 13.7442 18.569C13.7442 20.8386 15.5912 22.6856 17.8608 22.6856C20.1304 22.6856 21.9774 20.8386 21.9774 18.569C21.9774 16.614 20.6052 14.9811 18.7756 14.563L18.7765 14.5639ZM5.5118 17.9295V20.1251C5.5118 20.5285 5.1843 20.8569 4.77995 20.8569H2.58533C2.1819 20.8569 1.85257 20.5294 1.85257 20.1251V17.9295C1.85257 17.5261 2.18098 17.1977 2.58533 17.1977H4.77995C5.18338 17.1977 5.5118 17.5252 5.5118 17.9295ZM4.13959 7.13478C2.87807 7.13478 1.85257 6.10836 1.85257 4.84776C1.85257 3.58715 2.87807 2.56074 4.13959 2.56074C5.40111 2.56074 6.42661 3.58715 6.42661 4.84776C6.42661 6.10836 5.40111 7.13478 4.13959 7.13478ZM15.8254 5.40579C15.6634 5.24387 15.5756 5.02889 15.5756 4.80019C15.5756 4.57149 15.6643 4.35651 15.8254 4.19459L17.2561 2.76382C17.418 2.6019 17.633 2.51317 17.8617 2.51317C18.0904 2.51317 18.3045 2.6019 18.4664 2.76382L19.8972 4.19459C20.0591 4.35651 20.1478 4.57149 20.1478 4.80019C20.1478 5.02889 20.0582 5.24387 19.8972 5.40579L18.4664 6.83655C18.1426 7.16039 17.5781 7.15948 17.2561 6.83655L15.8254 5.40579ZM17.8617 20.8569C16.6002 20.8569 15.5747 19.8314 15.5747 18.5699C15.5747 17.3084 16.6002 16.2829 17.8617 16.2829C19.1232 16.2829 20.1487 17.3084 20.1487 18.5699C20.1487 19.8314 19.1232 20.8569 17.8617 20.8569Z" fill="#64748B"/>
</g>
<defs>
<clipPath id="clip0_1398_16739">
<rect width="22" height="22" fill="white" transform="translate(0 0.686523)"/>
</clipPath>
</defs>
</svg>
