<svg width="22" height="23" viewBox="0 0 22 23" fill="none" xmlns="http://www.w3.org/2000/svg">
<g clip-path="url(#clip0_176_5058)">
<path d="M11 5.26986C10.6353 5.26986 10.2856 5.12499 10.0277 4.86713C9.76987 4.60927 9.625 4.25953 9.625 3.89486V2.06152C9.625 1.69685 9.76987 1.34711 10.0277 1.08925C10.2856 0.831389 10.6353 0.686523 11 0.686523C11.3647 0.686523 11.7144 0.831389 11.9723 1.08925C12.2301 1.34711 12.375 1.69685 12.375 2.06152V3.89486C12.375 4.25953 12.2301 4.60927 11.9723 4.86713C11.7144 5.12499 11.3647 5.26986 11 5.26986ZM12.375 21.3115V19.4782C12.375 19.1135 12.2301 18.7638 11.9723 18.5059C11.7144 18.2481 11.3647 18.1032 11 18.1032C10.6353 18.1032 10.2856 18.2481 10.0277 18.5059C9.76987 18.7638 9.625 19.1135 9.625 19.4782V21.3115C9.625 21.6762 9.76987 22.0259 10.0277 22.2838C10.2856 22.5417 10.6353 22.6865 11 22.6865C11.3647 22.6865 11.7144 22.5417 11.9723 22.2838C12.2301 22.0259 12.375 21.6762 12.375 21.3115ZM4.58333 11.6865C4.58333 11.3219 4.43847 10.9721 4.18061 10.7143C3.92274 10.4564 3.57301 10.3115 3.20833 10.3115H1.375C1.01033 10.3115 0.660591 10.4564 0.402728 10.7143C0.144866 10.9721 0 11.3219 0 11.6865C0 12.0512 0.144866 12.4009 0.402728 12.6588C0.660591 12.9167 1.01033 13.0615 1.375 13.0615H3.20833C3.57301 13.0615 3.92274 12.9167 4.18061 12.6588C4.43847 12.4009 4.58333 12.0512 4.58333 11.6865ZM22 11.6865C22 11.3219 21.8551 10.9721 21.5973 10.7143C21.3394 10.4564 20.9897 10.3115 20.625 10.3115H18.7917C18.427 10.3115 18.0773 10.4564 17.8194 10.7143C17.5615 10.9721 17.4167 11.3219 17.4167 11.6865C17.4167 12.0512 17.5615 12.4009 17.8194 12.6588C18.0773 12.9167 18.427 13.0615 18.7917 13.0615H20.625C20.9897 13.0615 21.3394 12.9167 21.5973 12.6588C21.8551 12.4009 22 12.0512 22 11.6865ZM16.0197 5.57144L16.9189 3.97369C17.0908 3.65657 17.1312 3.28461 17.0313 2.93799C16.9315 2.59138 16.6995 2.29787 16.3853 2.12074C16.071 1.94362 15.6998 1.89705 15.3516 1.99108C15.0033 2.08512 14.706 2.31222 14.5237 2.62344L13.6235 4.22119C13.5348 4.37857 13.4779 4.55189 13.4562 4.73125C13.4345 4.9106 13.4483 5.09249 13.4969 5.26649C13.5455 5.4405 13.628 5.60322 13.7395 5.74536C13.851 5.8875 13.9895 6.00626 14.1469 6.09486C14.3523 6.21163 14.5845 6.27291 14.8207 6.27269C15.0648 6.27276 15.3045 6.20784 15.5152 6.0846C15.7259 5.96135 15.9001 5.78424 16.0197 5.57144ZM7.47633 20.7496L8.3765 19.1519C8.55555 18.8341 8.60105 18.4582 8.50297 18.1069C8.4049 17.7556 8.17129 17.4577 7.85354 17.2786C7.53579 17.0996 7.15992 17.0541 6.80863 17.1522C6.45733 17.2502 6.15939 17.4839 5.98033 17.8016L5.08108 19.3994C4.90922 19.7165 4.86885 20.0884 4.96867 20.4351C5.0685 20.7817 5.30053 21.0752 5.61475 21.2523C5.92896 21.4294 6.3002 21.476 6.64843 21.382C6.99666 21.2879 7.29399 21.0608 7.47633 20.7496ZM5.40833 8.53961C5.58734 8.22197 5.63285 7.84623 5.53487 7.49504C5.43688 7.14385 5.20342 6.84595 4.88583 6.66686L3.28717 5.76761C2.97004 5.59574 2.59808 5.55537 2.25147 5.6552C1.90486 5.75503 1.61135 5.98706 1.43422 6.30127C1.25709 6.61549 1.21053 6.98672 1.30456 7.33495C1.39859 7.68318 1.6257 7.98051 1.93692 8.16286L3.53467 9.06302C3.69204 9.15176 3.86536 9.20862 4.04472 9.23034C4.22408 9.25206 4.40596 9.23822 4.57997 9.18961C4.75398 9.141 4.9167 9.05857 5.05884 8.94704C5.20097 8.83551 5.31973 8.69706 5.40833 8.53961ZM20.5865 17.0829C20.7655 16.7653 20.811 16.3896 20.713 16.0384C20.6151 15.6872 20.3816 15.3893 20.064 15.2102L18.4663 14.31C18.3089 14.2214 18.1357 14.1646 17.9564 14.1429C17.7771 14.1212 17.5953 14.135 17.4213 14.1835C17.2474 14.2321 17.0847 14.3145 16.9426 14.4259C16.8005 14.5373 16.6817 14.6756 16.593 14.833C16.5044 14.9903 16.4476 15.1636 16.4259 15.3429C16.4042 15.5221 16.418 15.704 16.4666 15.8779C16.5646 16.2292 16.7983 16.5271 17.116 16.7062L18.7138 17.6054C19.0314 17.7844 19.4071 17.83 19.7583 17.732C20.1095 17.634 20.4074 17.4005 20.5865 17.0829ZM7.85308 6.09486C8.17083 5.91592 8.40448 5.61809 8.50264 5.26688C8.6008 4.91568 8.55543 4.53986 8.3765 4.22211L7.47633 2.62344C7.29399 2.31222 6.99666 2.08512 6.64843 1.99108C6.3002 1.89705 5.92896 1.94362 5.61475 2.12074C5.30053 2.29787 5.0685 2.59138 4.96867 2.93799C4.86885 3.28461 4.90922 3.65657 5.08108 3.97369L5.98033 5.57144C6.10007 5.78407 6.27423 5.961 6.48494 6.08407C6.69565 6.20715 6.93531 6.27193 7.17933 6.27177C7.41547 6.27228 7.64766 6.21131 7.85308 6.09486ZM16.3964 21.273C16.714 21.0939 16.9475 20.796 17.0455 20.4448C17.1434 20.0936 17.0979 19.7179 16.9189 19.4003L16.0197 17.8025C15.8406 17.4848 15.5427 17.2512 15.1914 17.1531C14.8401 17.055 14.4642 17.1005 14.1465 17.2796C13.8287 17.4586 13.5951 17.7566 13.497 18.1079C13.399 18.4592 13.4444 18.835 13.6235 19.1528L14.5237 20.7505C14.7028 21.0681 15.0007 21.3016 15.3519 21.3996C15.703 21.4975 16.0788 21.452 16.3964 21.273ZM18.4653 9.06302L20.0631 8.16286C20.3743 7.98051 20.6014 7.68318 20.6954 7.33495C20.7895 6.98672 20.7429 6.61549 20.5658 6.30127C20.3886 5.98706 20.0951 5.75503 19.7485 5.6552C19.4019 5.55537 19.03 5.59574 18.7128 5.76761L17.1151 6.66686C16.7973 6.84591 16.5637 7.14386 16.4657 7.49515C16.3676 7.84645 16.4131 8.22231 16.5921 8.54007C16.7712 8.85782 17.0691 9.09142 17.4204 9.1895C17.7717 9.28757 18.1476 9.24208 18.4653 9.06302ZM3.28717 17.6054L4.88492 16.7062C5.04225 16.6175 5.18058 16.4988 5.29201 16.3566C5.40344 16.2145 5.48579 16.0518 5.53435 15.8779C5.58291 15.704 5.59674 15.5221 5.57504 15.3429C5.55333 15.1636 5.49653 14.9903 5.40788 14.833C5.31922 14.6756 5.20044 14.5373 5.05832 14.4259C4.9162 14.3145 4.75352 14.2321 4.57958 14.1835C4.40564 14.135 4.22383 14.1212 4.04454 14.1429C3.86526 14.1646 3.692 14.2214 3.53467 14.31L1.93692 15.2102C1.67241 15.3596 1.46483 15.5924 1.34662 15.8723C1.2284 16.1522 1.20619 16.4633 1.28347 16.7571C1.36074 17.0509 1.53314 17.3109 1.77375 17.4963C2.01436 17.6818 2.30962 17.7824 2.61342 17.7824C2.84955 17.7829 3.08176 17.7219 3.28717 17.6054Z" fill="#64748B"/>
</g>
<defs>
<clipPath id="clip0_176_5058">
<rect width="22" height="22" fill="white" transform="translate(0 0.686523)"/>
</clipPath>
</defs>
</svg>
