<svg width="22" height="23" viewBox="0 0 22 23" fill="none" xmlns="http://www.w3.org/2000/svg">
<g clip-path="url(#clip0_314_4538)">
<path d="M11 4.97591C10.6353 4.97591 10.2856 4.83105 10.0277 4.57318C9.76987 4.31532 9.625 3.96558 9.625 3.60091V1.76758C9.625 1.40291 9.76987 1.05317 10.0277 0.795306C10.2856 0.537444 10.6353 0.392578 11 0.392578C11.3647 0.392578 11.7144 0.537444 11.9723 0.795306C12.2301 1.05317 12.375 1.40291 12.375 1.76758V3.60091C12.375 3.96558 12.2301 4.31532 11.9723 4.57318C11.7144 4.83105 11.3647 4.97591 11 4.97591ZM12.375 21.0176V19.1842C12.375 18.8196 12.2301 18.4698 11.9723 18.212C11.7144 17.9541 11.3647 17.8092 11 17.8092C10.6353 17.8092 10.2856 17.9541 10.0277 18.212C9.76987 18.4698 9.625 18.8196 9.625 19.1842V21.0176C9.625 21.3823 9.76987 21.732 10.0277 21.9898C10.2856 22.2477 10.6353 22.3926 11 22.3926C11.3647 22.3926 11.7144 22.2477 11.9723 21.9898C12.2301 21.732 12.375 21.3823 12.375 21.0176ZM4.58333 11.3926C4.58333 11.0279 4.43847 10.6782 4.18061 10.4203C3.92274 10.1624 3.57301 10.0176 3.20833 10.0176H1.375C1.01033 10.0176 0.660591 10.1624 0.402728 10.4203C0.144866 10.6782 0 11.0279 0 11.3926C0 11.7573 0.144866 12.107 0.402728 12.3649C0.660591 12.6227 1.01033 12.7676 1.375 12.7676H3.20833C3.57301 12.7676 3.92274 12.6227 4.18061 12.3649C4.43847 12.107 4.58333 11.7573 4.58333 11.3926ZM22 11.3926C22 11.0279 21.8551 10.6782 21.5973 10.4203C21.3394 10.1624 20.9897 10.0176 20.625 10.0176H18.7917C18.427 10.0176 18.0773 10.1624 17.8194 10.4203C17.5615 10.6782 17.4167 11.0279 17.4167 11.3926C17.4167 11.7573 17.5615 12.107 17.8194 12.3649C18.0773 12.6227 18.427 12.7676 18.7917 12.7676H20.625C20.9897 12.7676 21.3394 12.6227 21.5973 12.3649C21.8551 12.107 22 11.7573 22 11.3926ZM16.0197 5.27749L16.9189 3.67974C17.0908 3.36262 17.1312 2.99066 17.0313 2.64405C16.9315 2.29743 16.6995 2.00393 16.3853 1.8268C16.071 1.64967 15.6998 1.6031 15.3516 1.69714C15.0033 1.79117 14.706 2.01828 14.5237 2.32949L13.6235 3.92724C13.5348 4.08462 13.4779 4.25794 13.4562 4.4373C13.4345 4.61666 13.4483 4.79854 13.4969 4.97255C13.5455 5.14656 13.628 5.30928 13.7395 5.45141C13.851 5.59355 13.9895 5.71231 14.1469 5.80091C14.3523 5.91768 14.5845 5.97897 14.8207 5.97874C15.0648 5.97881 15.3045 5.91389 15.5152 5.79065C15.7259 5.66741 15.9001 5.49029 16.0197 5.27749ZM7.47633 20.4557L8.3765 18.8579C8.55555 18.5402 8.60105 18.1643 8.50297 17.813C8.4049 17.4617 8.17129 17.1638 7.85354 16.9847C7.53579 16.8056 7.15992 16.7602 6.80863 16.8582C6.45733 16.9563 6.15939 17.1899 5.98033 17.5077L5.08108 19.1054C4.90922 19.4225 4.86885 19.7945 4.96867 20.1411C5.0685 20.4877 5.30053 20.7812 5.61475 20.9584C5.92896 21.1355 6.3002 21.1821 6.64843 21.088C6.99666 20.994 7.29399 20.7669 7.47633 20.4557ZM5.40833 8.24566C5.58734 7.92802 5.63285 7.55229 5.53487 7.20109C5.43688 6.8499 5.20342 6.552 4.88583 6.37291L3.28717 5.47366C2.97004 5.3018 2.59808 5.26143 2.25147 5.36125C1.90486 5.46108 1.61135 5.69311 1.43422 6.00733C1.25709 6.32154 1.21053 6.69278 1.30456 7.041C1.39859 7.38923 1.6257 7.68657 1.93692 7.86891L3.53467 8.76908C3.69204 8.85782 3.86536 8.91467 4.04472 8.93639C4.22408 8.95811 4.40596 8.94427 4.57997 8.89566C4.75398 8.84705 4.9167 8.76463 5.05884 8.65309C5.20097 8.54156 5.31973 8.40312 5.40833 8.24566ZM20.5865 16.789C20.7655 16.4714 20.811 16.0956 20.713 15.7444C20.6151 15.3932 20.3816 15.0953 20.064 14.9162L18.4663 14.0161C18.3089 13.9274 18.1357 13.8706 17.9564 13.8489C17.7771 13.8272 17.5953 13.841 17.4213 13.8896C17.2474 13.9382 17.0847 14.0205 16.9426 14.1319C16.8005 14.2434 16.6817 14.3817 16.593 14.539C16.5044 14.6964 16.4476 14.8696 16.4259 15.0489C16.4042 15.2282 16.418 15.41 16.4666 15.5839C16.5646 15.9352 16.7982 16.2332 17.116 16.4122L18.7138 17.3115C19.0314 17.4905 19.4071 17.536 19.7583 17.438C20.1095 17.34 20.4074 17.1066 20.5865 16.789ZM7.85308 5.80091C8.17083 5.62198 8.40449 5.32415 8.50264 4.97294C8.6008 4.62173 8.55543 4.24591 8.3765 3.92816L7.47633 2.32949C7.29399 2.01828 6.99666 1.79117 6.64843 1.69714C6.3002 1.6031 5.92896 1.64967 5.61475 1.8268C5.30053 2.00393 5.0685 2.29743 4.96867 2.64405C4.86885 2.99066 4.90922 3.36262 5.08108 3.67974L5.98033 5.27749C6.10007 5.49012 6.27423 5.66705 6.48494 5.79013C6.69565 5.9132 6.93531 5.97799 7.17933 5.97783C7.41547 5.97833 7.64766 5.91736 7.85308 5.80091ZM16.3964 20.9791C16.714 20.8 16.9475 20.5021 17.0454 20.1509C17.1434 19.7997 17.0979 19.424 16.9189 19.1063L16.0197 17.5086C15.8406 17.1908 15.5427 16.9572 15.1914 16.8591C14.8401 16.7611 14.4642 16.8066 14.1465 16.9856C13.8287 17.1647 13.5951 17.4626 13.497 17.8139C13.399 18.1652 13.4444 18.5411 13.6235 18.8588L14.5237 20.4566C14.7028 20.7742 15.0007 21.0076 15.3519 21.1056C15.703 21.2036 16.0788 21.1581 16.3964 20.9791ZM18.4653 8.76908L20.0631 7.86891C20.3743 7.68657 20.6014 7.38923 20.6954 7.041C20.7895 6.69278 20.7429 6.32154 20.5658 6.00733C20.3886 5.69311 20.0951 5.46108 19.7485 5.36125C19.4019 5.26143 19.03 5.3018 18.7128 5.47366L17.1151 6.37291C16.7973 6.55197 16.5637 6.84991 16.4657 7.20121C16.3676 7.5525 16.4131 7.92837 16.5921 8.24612C16.7712 8.56387 17.0691 8.79748 17.4204 8.89555C17.7717 8.99363 18.1476 8.94813 18.4653 8.76908ZM3.28717 17.3115L4.88492 16.4122C5.04225 16.3236 5.18058 16.2048 5.29201 16.0627C5.40344 15.9206 5.48579 15.7579 5.53435 15.5839C5.58291 15.41 5.59674 15.2282 5.57504 15.0489C5.55333 14.8696 5.49653 14.6964 5.40788 14.539C5.31922 14.3817 5.20044 14.2434 5.05832 14.1319C4.9162 14.0205 4.75352 13.9382 4.57958 13.8896C4.40564 13.841 4.22383 13.8272 4.04454 13.8489C3.86526 13.8706 3.692 13.9274 3.53467 14.0161L1.93692 14.9162C1.67241 15.0657 1.46483 15.2985 1.34662 15.5784C1.2284 15.8582 1.20619 16.1693 1.28347 16.4632C1.36074 16.757 1.53314 17.0169 1.77375 17.2024C2.01436 17.3879 2.30962 17.4884 2.61342 17.4884C2.84955 17.489 3.08176 17.428 3.28717 17.3115Z" fill="white"/>
</g>
<defs>
<clipPath id="clip0_314_4538">
<rect width="22" height="22" fill="white" transform="translate(0 0.392578)"/>
</clipPath>
</defs>
</svg>
