<svg width="22" height="23" viewBox="0 0 22 23" fill="none" xmlns="http://www.w3.org/2000/svg">
<path d="M12.7919 19.8965C12.2263 19.9213 11.6268 19.9368 10.9998 19.9368C7.28459 19.9368 4.574 19.4217 3.50334 19.1788C3.25859 18.1393 2.74984 15.6102 2.74984 12.6035C2.74984 11.6089 2.80575 10.6666 2.88917 9.81227C3.51159 9.65277 6.55859 8.93685 10.9998 8.93685C15.9966 8.93685 19.6843 9.81868 19.721 9.82785C20.0125 9.89752 20.3214 9.82327 20.5469 9.6216C20.7715 9.42085 20.8833 9.12385 20.8467 8.82502C20.5698 6.5691 20.1482 5.08043 20.1317 5.0181C20.0437 4.71377 19.8063 4.47635 19.501 4.38835C19.4378 4.37093 18.6962 4.16377 17.4165 3.94835V2.52018C17.4165 2.01327 17.0068 1.60352 16.4998 1.60352C15.9929 1.60352 15.5832 2.01327 15.5832 2.52018V3.69168C14.3108 3.54685 12.7699 3.43685 10.9998 3.43685C9.22975 3.43685 7.68884 3.54685 6.4165 3.69168V2.52018C6.4165 2.01327 6.00675 1.60352 5.49984 1.60352C4.99292 1.60352 4.58317 2.01327 4.58317 2.52018V3.94835C3.3035 4.16468 2.561 4.37093 2.49867 4.38835C2.19434 4.47635 1.956 4.71377 1.868 5.01902C1.8295 5.15468 0.916504 8.39968 0.916504 12.6035C0.916504 16.8073 1.8295 20.0523 1.868 20.188C1.956 20.4923 2.19342 20.7307 2.49867 20.8187C2.63434 20.8572 5.8885 21.7702 10.9998 21.7702C11.6562 21.7702 12.2813 21.7546 12.8744 21.728C13.3804 21.706 13.7718 21.277 13.7489 20.771C13.726 20.265 13.2952 19.8598 12.7919 19.8965ZM3.50334 6.02827C4.574 5.78535 7.28459 5.27018 10.9998 5.27018C14.7151 5.27018 17.4266 5.78535 18.4963 6.02827C18.5889 6.41968 18.7191 7.02193 18.8447 7.7791C17.2891 7.49952 14.4667 7.10352 10.9998 7.10352C7.24975 7.10352 4.47317 7.5811 3.14217 7.86985C3.27325 7.06868 3.408 6.43527 3.50334 6.02827ZM19.2498 20.6555V20.8535C19.2498 21.3604 18.8401 21.7702 18.3332 21.7702C17.8263 21.7702 17.4165 21.3604 17.4165 20.8535V20.7343C16.4833 20.4722 15.6968 19.7792 15.376 18.8643C15.2092 18.3868 15.4613 17.8633 15.9388 17.6965C16.4183 17.5315 16.9398 17.7818 17.1067 18.2593C17.2579 18.6938 17.7392 19.0202 18.2268 19.0202C18.7906 19.0202 19.2489 18.5563 19.2489 17.9862C19.2535 17.35 18.6806 16.8834 18.0609 16.9558C16.6703 16.8733 15.5823 15.7165 15.5823 14.3241C15.5823 13.1957 16.2991 12.2378 17.2983 11.8619V11.6868C17.2983 11.1799 17.708 10.7702 18.2149 10.7702C18.7218 10.7702 19.1316 11.1799 19.1316 11.6868V11.8564C19.8512 12.1232 20.4397 12.6924 20.7055 13.4441C20.8751 13.9217 20.6248 14.446 20.1482 14.6138C19.6697 14.7833 19.1463 14.5331 18.9785 14.0564C18.8648 13.7356 18.5605 13.5202 18.2204 13.5202C17.7777 13.5202 17.4165 13.8813 17.4165 14.3241C17.4156 14.7403 17.7511 15.1133 18.1691 15.1198C19.798 15.1198 21.0832 16.4058 21.0832 17.9862C21.0832 19.2044 20.3196 20.2403 19.2498 20.6555Z" fill="#64748B"/>
</svg>
