<svg width="32" height="35" viewBox="0 0 32 35" fill="none" xmlns="http://www.w3.org/2000/svg">
<g clip-path="url(#clip0_1412_16393)">
<path d="M16 11.2699C15.6353 11.2699 15.2856 11.125 15.0277 10.8671C14.7699 10.6093 14.625 10.2595 14.625 9.89486V8.06152C14.625 7.69685 14.7699 7.34711 15.0277 7.08925C15.2856 6.83139 15.6353 6.68652 16 6.68652C16.3647 6.68652 16.7144 6.83139 16.9723 7.08925C17.2301 7.34711 17.375 7.69685 17.375 8.06152V9.89486C17.375 10.2595 17.2301 10.6093 16.9723 10.8671C16.7144 11.125 16.3647 11.2699 16 11.2699ZM17.375 27.3115V25.4782C17.375 25.1135 17.2301 24.7638 16.9723 24.5059C16.7144 24.2481 16.3647 24.1032 16 24.1032C15.6353 24.1032 15.2856 24.2481 15.0277 24.5059C14.7699 24.7638 14.625 25.1135 14.625 25.4782V27.3115C14.625 27.6762 14.7699 28.0259 15.0277 28.2838C15.2856 28.5417 15.6353 28.6865 16 28.6865C16.3647 28.6865 16.7144 28.5417 16.9723 28.2838C17.2301 28.0259 17.375 27.6762 17.375 27.3115ZM9.58333 17.6865C9.58333 17.3219 9.43847 16.9721 9.18061 16.7143C8.92274 16.4564 8.57301 16.3115 8.20833 16.3115H6.375C6.01033 16.3115 5.66059 16.4564 5.40273 16.7143C5.14487 16.9721 5 17.3219 5 17.6865C5 18.0512 5.14487 18.4009 5.40273 18.6588C5.66059 18.9167 6.01033 19.0615 6.375 19.0615H8.20833C8.57301 19.0615 8.92274 18.9167 9.18061 18.6588C9.43847 18.4009 9.58333 18.0512 9.58333 17.6865ZM27 17.6865C27 17.3219 26.8551 16.9721 26.5973 16.7143C26.3394 16.4564 25.9897 16.3115 25.625 16.3115H23.7917C23.427 16.3115 23.0773 16.4564 22.8194 16.7143C22.5615 16.9721 22.4167 17.3219 22.4167 17.6865C22.4167 18.0512 22.5615 18.4009 22.8194 18.6588C23.0773 18.9167 23.427 19.0615 23.7917 19.0615H25.625C25.9897 19.0615 26.3394 18.9167 26.5973 18.6588C26.8551 18.4009 27 18.0512 27 17.6865ZM21.0197 11.5714L21.9189 9.97369C22.0908 9.65657 22.1312 9.28461 22.0313 8.93799C21.9315 8.59138 21.6995 8.29787 21.3853 8.12074C21.071 7.94362 20.6998 7.89705 20.3516 7.99108C20.0033 8.08512 19.706 8.31222 19.5237 8.62344L18.6235 10.2212C18.5348 10.3786 18.4779 10.5519 18.4562 10.7312C18.4345 10.9106 18.4483 11.0925 18.4969 11.2665C18.5455 11.4405 18.628 11.6032 18.7395 11.7454C18.851 11.8875 18.9895 12.0063 19.1469 12.0949C19.3523 12.2116 19.5845 12.2729 19.8207 12.2727C20.0648 12.2728 20.3045 12.2078 20.5152 12.0846C20.7259 11.9614 20.9001 11.7842 21.0197 11.5714ZM12.4763 26.7496L13.3765 25.1519C13.5556 24.8341 13.601 24.4582 13.503 24.1069C13.4049 23.7556 13.1713 23.4577 12.8535 23.2786C12.5358 23.0996 12.1599 23.0541 11.8086 23.1522C11.4573 23.2502 11.1594 23.4839 10.9803 23.8016L10.0811 25.3994C9.90922 25.7165 9.86885 26.0884 9.96867 26.4351C10.0685 26.7817 10.3005 27.0752 10.6147 27.2523C10.929 27.4294 11.3002 27.476 11.6484 27.382C11.9967 27.2879 12.294 27.0608 12.4763 26.7496ZM10.4083 14.5396C10.5873 14.222 10.6328 13.8462 10.5349 13.495C10.4369 13.1438 10.2034 12.8459 9.88583 12.6669L8.28717 11.7676C7.97004 11.5957 7.59808 11.5554 7.25147 11.6552C6.90486 11.755 6.61135 11.9871 6.43422 12.3013C6.25709 12.6155 6.21053 12.9867 6.30456 13.335C6.39859 13.6832 6.6257 13.9805 6.93692 14.1629L8.53467 15.063C8.69204 15.1518 8.86536 15.2086 9.04472 15.2303C9.22408 15.2521 9.40596 15.2382 9.57997 15.1896C9.75398 15.141 9.9167 15.0586 10.0588 14.947C10.201 14.8355 10.3197 14.6971 10.4083 14.5396ZM25.5865 23.0829C25.7655 22.7653 25.811 22.3896 25.713 22.0384C25.6151 21.6872 25.3816 21.3893 25.064 21.2102L23.4663 20.31C23.3089 20.2214 23.1357 20.1646 22.9564 20.1429C22.7771 20.1212 22.5953 20.135 22.4213 20.1835C22.2474 20.2321 22.0847 20.3145 21.9426 20.4259C21.8005 20.5373 21.6817 20.6756 21.593 20.833C21.5044 20.9903 21.4476 21.1636 21.4259 21.3429C21.4042 21.5221 21.418 21.704 21.4666 21.8779C21.5646 22.2292 21.7982 22.5271 22.116 22.7062L23.7138 23.6054C24.0314 23.7844 24.4071 23.83 24.7583 23.732C25.1095 23.634 25.4074 23.4005 25.5865 23.0829ZM12.8531 12.0949C13.1708 11.9159 13.4045 11.6181 13.5026 11.2669C13.6008 10.9157 13.5554 10.5399 13.3765 10.2221L12.4763 8.62344C12.294 8.31222 11.9967 8.08512 11.6484 7.99108C11.3002 7.89705 10.929 7.94362 10.6147 8.12074C10.3005 8.29787 10.0685 8.59138 9.96867 8.93799C9.86885 9.28461 9.90922 9.65657 10.0811 9.97369L10.9803 11.5714C11.1001 11.7841 11.2742 11.961 11.4849 12.0841C11.6956 12.2071 11.9353 12.2719 12.1793 12.2718C12.4155 12.2723 12.6477 12.2113 12.8531 12.0949ZM21.3964 27.273C21.714 27.0939 21.9475 26.796 22.0454 26.4448C22.1434 26.0936 22.0979 25.7179 21.9189 25.4003L21.0197 23.8025C20.8406 23.4848 20.5427 23.2512 20.1914 23.1531C19.8401 23.055 19.4642 23.1005 19.1465 23.2796C18.8287 23.4586 18.5951 23.7566 18.497 24.1079C18.399 24.4592 18.4444 24.835 18.6235 25.1528L19.5237 26.7505C19.7028 27.0681 20.0007 27.3016 20.3519 27.3996C20.703 27.4975 21.0788 27.452 21.3964 27.273ZM23.4653 15.063L25.0631 14.1629C25.3743 13.9805 25.6014 13.6832 25.6954 13.335C25.7895 12.9867 25.7429 12.6155 25.5658 12.3013C25.3886 11.9871 25.0951 11.755 24.7485 11.6552C24.4019 11.5554 24.03 11.5957 23.7128 11.7676L22.1151 12.6669C21.7973 12.8459 21.5637 13.1439 21.4657 13.4952C21.3676 13.8464 21.4131 14.2223 21.5921 14.5401C21.7712 14.8578 22.0691 15.0914 22.4204 15.1895C22.7717 15.2876 23.1476 15.2421 23.4653 15.063ZM8.28717 23.6054L9.88492 22.7062C10.0423 22.6175 10.1806 22.4988 10.292 22.3566C10.4034 22.2145 10.4858 22.0518 10.5344 21.8779C10.5829 21.704 10.5967 21.5221 10.575 21.3429C10.5533 21.1636 10.4965 20.9903 10.4079 20.833C10.3192 20.6756 10.2004 20.5373 10.0583 20.4259C9.9162 20.3145 9.75352 20.2321 9.57958 20.1835C9.40564 20.135 9.22383 20.1212 9.04454 20.1429C8.86526 20.1646 8.692 20.2214 8.53467 20.31L6.93692 21.2102C6.67241 21.3596 6.46483 21.5924 6.34662 21.8723C6.2284 22.1522 6.20619 22.4633 6.28347 22.7571C6.36074 23.0509 6.53314 23.3109 6.77375 23.4963C7.01436 23.6818 7.30962 23.7824 7.61342 23.7824C7.84955 23.7829 8.08176 23.7219 8.28717 23.6054Z" fill="#64748B"/>
</g>
<defs>
<clipPath id="clip0_1412_16393">
<rect width="22" height="22" fill="white" transform="translate(5 6.68652)"/>
</clipPath>
</defs>
</svg>
