<svg width="22" height="23" viewBox="0 0 22 23" fill="none" xmlns="http://www.w3.org/2000/svg">
<g clip-path="url(#clip0_176_5062)">
<path d="M10.9997 8.02051C10.2745 8.02051 9.56557 8.23555 8.96259 8.63845C8.35961 9.04135 7.88964 9.61401 7.61212 10.284C7.3346 10.954 7.26198 11.6912 7.40346 12.4025C7.54494 13.1138 7.89416 13.7671 8.40695 14.2799C8.91974 14.7927 9.57308 15.1419 10.2843 15.2834C10.9956 15.4249 11.7329 15.3523 12.4029 15.0747C13.0728 14.7972 13.6455 14.3272 14.0484 13.7243C14.4513 13.1213 14.6663 12.4124 14.6663 11.6872C14.6663 10.7147 14.28 9.78208 13.5924 9.09445C12.9048 8.40682 11.9721 8.02051 10.9997 8.02051ZM10.9997 13.5205C10.6371 13.5205 10.2826 13.413 9.98113 13.2115C9.67964 13.0101 9.44466 12.7238 9.3059 12.3888C9.16714 12.0538 9.13083 11.6851 9.20157 11.3295C9.27231 10.9739 9.44692 10.6472 9.70331 10.3908C9.95971 10.1344 10.2864 9.95981 10.642 9.88907C10.9976 9.81833 11.3663 9.85463 11.7013 9.9934C12.0363 10.1322 12.3226 10.3671 12.524 10.6686C12.7255 10.9701 12.833 11.3246 12.833 11.6872C12.833 12.1734 12.6399 12.6397 12.296 12.9835C11.9522 13.3274 11.4859 13.5205 10.9997 13.5205Z" fill="#64748B"/>
<path d="M19.5195 13.4282L19.1125 13.1935C19.2957 12.1966 19.2957 11.1746 19.1125 10.1777L19.5195 9.94302C19.8325 9.76246 20.1068 9.52201 20.3269 9.23541C20.5469 8.94882 20.7084 8.62168 20.802 8.27269C20.8957 7.9237 20.9196 7.55968 20.8726 7.20142C20.8255 6.84316 20.7084 6.49767 20.5278 6.18469C20.3472 5.87171 20.1068 5.59735 19.8202 5.37729C19.5336 5.15723 19.2065 4.99578 18.8575 4.90215C18.5085 4.80851 18.1445 4.78454 17.7862 4.83159C17.4279 4.87864 17.0825 4.99579 16.7695 5.17636L16.3616 5.41194C15.5911 4.7537 14.7058 4.24342 13.75 3.90677V3.43652C13.75 2.70718 13.4602 2.0077 12.9445 1.49198C12.4288 0.976255 11.7293 0.686523 11 0.686523C10.2706 0.686523 9.57116 0.976255 9.05544 1.49198C8.53971 2.0077 8.24998 2.70718 8.24998 3.43652V3.90677C7.29425 4.24463 6.40917 4.75616 5.63931 5.41561L5.22956 5.17819C4.59746 4.81352 3.84639 4.71488 3.14156 4.90398C2.43674 5.09308 1.8359 5.55442 1.47123 6.18652C1.10656 6.81862 1.00792 7.5697 1.19702 8.27452C1.38612 8.97935 1.84746 9.58018 2.47956 9.94486L2.88656 10.1795C2.70333 11.1765 2.70333 12.1984 2.88656 13.1954L2.47956 13.43C1.84746 13.7947 1.38612 14.3955 1.19702 15.1004C1.00792 15.8052 1.10656 16.5563 1.47123 17.1884C1.8359 17.8205 2.43674 18.2818 3.14156 18.4709C3.84639 18.66 4.59746 18.5614 5.22956 18.1967L5.63748 17.9611C6.40818 18.6194 7.29388 19.1297 8.24998 19.4663V19.9365C8.24998 20.6659 8.53971 21.3653 9.05544 21.8811C9.57116 22.3968 10.2706 22.6865 11 22.6865C11.7293 22.6865 12.4288 22.3968 12.9445 21.8811C13.4602 21.3653 13.75 20.6659 13.75 19.9365V19.4663C14.7057 19.1284 15.5908 18.6169 16.3606 17.9574L16.7704 18.1939C17.4025 18.5586 18.1536 18.6572 18.8584 18.4682C19.5632 18.2791 20.1641 17.8177 20.5287 17.1856C20.8934 16.5535 20.992 15.8024 20.8029 15.0976C20.6138 14.3928 20.1525 13.7919 19.5204 13.4273L19.5195 13.4282ZM17.1838 9.96686C17.4942 11.0917 17.4942 12.2795 17.1838 13.4044C17.1296 13.6001 17.142 13.8084 17.219 13.9963C17.2959 14.1843 17.4332 14.3414 17.6091 14.4429L18.6028 15.0168C18.8135 15.1383 18.9672 15.3386 19.0302 15.5735C19.0932 15.8084 19.0603 16.0587 18.9388 16.2694C18.8172 16.4801 18.617 16.6338 18.382 16.6968C18.1471 16.7598 17.8968 16.7269 17.6861 16.6054L16.6906 16.0297C16.5146 15.9277 16.3095 15.8872 16.1079 15.9146C15.9062 15.942 15.7194 16.0357 15.5769 16.1809C14.761 17.0139 13.7331 17.6082 12.6041 17.8997C12.4071 17.9504 12.2325 18.0651 12.1079 18.226C11.9832 18.3868 11.9156 18.5845 11.9157 18.7879V19.9365C11.9157 20.1796 11.8192 20.4128 11.6472 20.5847C11.4753 20.7566 11.2422 20.8532 10.9991 20.8532C10.7559 20.8532 10.5228 20.7566 10.3509 20.5847C10.179 20.4128 10.0824 20.1796 10.0824 19.9365V18.7889C10.0825 18.5854 10.0149 18.3877 9.89027 18.2269C9.76563 18.066 9.59103 17.9513 9.39398 17.9006C8.26496 17.6079 7.23736 17.0123 6.42215 16.1782C6.27963 16.0329 6.09282 15.9392 5.89117 15.9118C5.68952 15.8845 5.48449 15.9249 5.3084 16.0269L4.31473 16.6017C4.21044 16.6628 4.09509 16.7027 3.97531 16.7191C3.85553 16.7355 3.7337 16.728 3.61683 16.6971C3.49995 16.6662 3.39035 16.6125 3.29431 16.5391C3.19828 16.4656 3.11772 16.3739 3.05728 16.2692C2.99683 16.1645 2.95769 16.0489 2.94211 15.9291C2.92653 15.8092 2.93481 15.6874 2.96649 15.5707C2.99816 15.4541 3.0526 15.3448 3.12667 15.2493C3.20074 15.1537 3.29297 15.0738 3.39806 15.014L4.39173 14.4402C4.56768 14.3387 4.70493 14.1816 4.78192 13.9936C4.8589 13.8056 4.87126 13.5974 4.81706 13.4016C4.50664 12.2768 4.50664 11.0889 4.81706 9.96411C4.87029 9.76875 4.85734 9.56126 4.78023 9.37404C4.70311 9.18682 4.56618 9.0304 4.39081 8.92919L3.39715 8.35536C3.18649 8.2338 3.03274 8.03354 2.96974 7.79862C2.90673 7.56371 2.93963 7.31339 3.06119 7.10273C3.18274 6.89207 3.38301 6.73833 3.61792 6.67533C3.85283 6.61232 4.10315 6.64522 4.31381 6.76677L5.30931 7.34244C5.48493 7.44466 5.68953 7.48563 5.89096 7.45892C6.0924 7.43221 6.27925 7.33932 6.42215 7.19486C7.23806 6.36192 8.26595 5.76763 9.3949 5.47611C9.59256 5.42529 9.76761 5.30996 9.89231 5.1484C10.017 4.98684 10.0842 4.78828 10.0833 4.58419V3.43652C10.0833 3.19341 10.1799 2.96025 10.3518 2.78834C10.5237 2.61643 10.7569 2.51986 11 2.51986C11.2431 2.51986 11.4763 2.61643 11.6482 2.78834C11.8201 2.96025 11.9166 3.19341 11.9166 3.43652V4.58419C11.9165 4.78765 11.9841 4.98536 12.1088 5.14618C12.2334 5.307 12.408 5.42178 12.6051 5.47244C13.7344 5.765 14.7623 6.36058 15.5778 7.19486C15.7203 7.34012 15.9071 7.43383 16.1088 7.46121C16.3104 7.48859 16.5155 7.4481 16.6916 7.34611L17.6852 6.77136C17.7895 6.71022 17.9049 6.67031 18.0246 6.65393C18.1444 6.63756 18.2663 6.64503 18.3831 6.67593C18.5 6.70683 18.6096 6.76054 18.7056 6.83398C18.8017 6.90741 18.8822 6.99911 18.9427 7.10381C19.0031 7.2085 19.0423 7.32412 19.0578 7.444C19.0734 7.56388 19.0651 7.68566 19.0335 7.80232C19.0018 7.91899 18.9474 8.02824 18.8733 8.12378C18.7992 8.21933 18.707 8.29927 18.6019 8.35902L17.6082 8.93286C17.4332 9.03434 17.2966 9.19088 17.2199 9.37808C17.1431 9.56528 17.1304 9.77262 17.1838 9.96777V9.96686Z" fill="#64748B"/>
</g>
<defs>
<clipPath id="clip0_176_5062">
<rect width="22" height="22" fill="white" transform="translate(0 0.686523)"/>
</clipPath>
</defs>
</svg>
