<svg width="22" height="23" viewBox="0 0 22 23" fill="none" xmlns="http://www.w3.org/2000/svg">
<g clip-path="url(#clip0_314_4540)">
<path d="M10.9997 7.72656C10.2745 7.72656 9.56557 7.94161 8.96259 8.34451C8.35961 8.74741 7.88964 9.32006 7.61212 9.99006C7.3346 10.6601 7.26198 11.3973 7.40346 12.1086C7.54494 12.8198 7.89416 13.4732 8.40695 13.986C8.91974 14.4987 9.57308 14.848 10.2843 14.9894C10.9956 15.1309 11.7329 15.0583 12.4028 14.7808C13.0728 14.5033 13.6455 14.0333 14.0484 13.4303C14.4513 12.8273 14.6663 12.1184 14.6663 11.3932C14.6663 10.4208 14.28 9.48814 13.5924 8.8005C12.9048 8.11287 11.9721 7.72656 10.9997 7.72656ZM10.9997 13.2266C10.6371 13.2266 10.2826 13.119 9.98113 12.9176C9.67964 12.7161 9.44466 12.4298 9.3059 12.0948C9.16714 11.7598 9.13083 11.3912 9.20157 11.0356C9.27231 10.6799 9.44692 10.3533 9.70331 10.0969C9.95971 9.84047 10.2864 9.66586 10.642 9.59512C10.9976 9.52438 11.3663 9.56069 11.7013 9.69945C12.0363 9.83821 12.3226 10.0732 12.524 10.3747C12.7255 10.6762 12.833 11.0306 12.833 11.3932C12.833 11.8795 12.6399 12.3458 12.296 12.6896C11.9522 13.0334 11.4859 13.2266 10.9997 13.2266Z" fill="white"/>
<path d="M19.5195 13.1342L19.1125 12.8996C19.2957 11.9027 19.2957 10.8807 19.1125 9.88375L19.5195 9.64908C19.8325 9.46851 20.1068 9.22806 20.3269 8.94147C20.5469 8.65487 20.7084 8.32774 20.802 7.97874C20.8957 7.62975 20.9196 7.26573 20.8726 6.90747C20.8255 6.54921 20.7084 6.20373 20.5278 5.89075C20.3472 5.57776 20.1068 5.30341 19.8202 5.08335C19.5336 4.86329 19.2065 4.70183 18.8575 4.6082C18.5085 4.51457 18.1445 4.49059 17.7862 4.53764C17.4279 4.58469 17.0825 4.70184 16.7695 4.88241L16.3616 5.118C15.5911 4.45975 14.7058 3.94947 13.75 3.61283V3.14258C13.75 2.41323 13.4602 1.71376 12.9445 1.19803C12.4288 0.682309 11.7293 0.392578 11 0.392578C10.2706 0.392578 9.57116 0.682309 9.05543 1.19803C8.53971 1.71376 8.24998 2.41323 8.24998 3.14258V3.61283C7.29425 3.95068 6.40917 4.46221 5.63931 5.12166L5.22956 4.88424C4.59746 4.51957 3.84639 4.42094 3.14156 4.61004C2.43674 4.79913 1.8359 5.26048 1.47123 5.89258C1.10656 6.52468 1.00792 7.27575 1.19702 7.98058C1.38612 8.6854 1.84746 9.28624 2.47956 9.65091L2.88656 9.88558C2.70333 10.8825 2.70333 11.9045 2.88656 12.9014L2.47956 13.1361C1.84746 13.5008 1.38612 14.1016 1.19702 14.8064C1.00792 15.5112 1.10656 16.2623 1.47123 16.8944C1.8359 17.5265 2.43674 17.9879 3.14156 18.177C3.84639 18.3661 4.59746 18.2674 5.22956 17.9027L5.63748 17.6672C6.40818 18.3255 7.29388 18.8358 8.24998 19.1723V19.6426C8.24998 20.3719 8.53971 21.0714 9.05543 21.5871C9.57116 22.1028 10.2706 22.3926 11 22.3926C11.7293 22.3926 12.4288 22.1028 12.9445 21.5871C13.4602 21.0714 13.75 20.3719 13.75 19.6426V19.1723C14.7057 18.8345 15.5908 18.3229 16.3606 17.6635L16.7704 17.9C17.4025 18.2647 18.1536 18.3633 18.8584 18.1742C19.5632 17.9851 20.1641 17.5238 20.5287 16.8917C20.8934 16.2596 20.992 15.5085 20.8029 14.8037C20.6138 14.0988 20.1525 13.498 19.5204 13.1333L19.5195 13.1342ZM17.1838 9.67291C17.4942 10.7977 17.4942 11.9856 17.1838 13.1104C17.1296 13.3062 17.142 13.5144 17.219 13.7024C17.2959 13.8904 17.4332 14.0475 17.6091 14.149L18.6028 14.7228C18.8135 14.8444 18.9672 15.0446 19.0302 15.2796C19.0932 15.5145 19.0603 15.7648 18.9388 15.9755C18.8172 16.1861 18.617 16.3399 18.382 16.4029C18.1471 16.4659 17.8968 16.433 17.6861 16.3114L16.6906 15.7357C16.5146 15.6338 16.3095 15.5933 16.1079 15.6206C15.9062 15.648 15.7194 15.7417 15.5769 15.887C14.761 16.7199 13.7331 17.3142 12.6041 17.6057C12.4071 17.6564 12.2325 17.7712 12.1079 17.932C11.9832 18.0928 11.9156 18.2905 11.9157 18.494V19.6426C11.9157 19.8857 11.8192 20.1189 11.6472 20.2908C11.4753 20.4627 11.2422 20.5592 10.9991 20.5592C10.7559 20.5592 10.5228 20.4627 10.3509 20.2908C10.179 20.1189 10.0824 19.8857 10.0824 19.6426V18.4949C10.0825 18.2914 10.0149 18.0937 9.89027 17.9329C9.76563 17.7721 9.59103 17.6573 9.39398 17.6067C8.26496 17.314 7.23736 16.7184 6.42215 15.8842C6.27963 15.739 6.09282 15.6453 5.89117 15.6179C5.68952 15.5905 5.48449 15.631 5.3084 15.733L4.31473 16.3077C4.21044 16.3689 4.09509 16.4088 3.97531 16.4252C3.85553 16.4415 3.7337 16.4341 3.61683 16.4032C3.49995 16.3723 3.39035 16.3186 3.29431 16.2451C3.19828 16.1717 3.11772 16.08 3.05728 15.9753C2.99683 15.8706 2.95769 15.755 2.94211 15.6351C2.92653 15.5152 2.93481 15.3934 2.96649 15.2768C2.99816 15.1601 3.0526 15.0509 3.12667 14.9553C3.20074 14.8598 3.29297 14.7798 3.39806 14.7201L4.39173 14.1462C4.56768 14.0447 4.70493 13.8876 4.78192 13.6997C4.8589 13.5117 4.87127 13.3034 4.81706 13.1077C4.50664 11.9829 4.50664 10.795 4.81706 9.67016C4.87029 9.4748 4.85734 9.26732 4.78023 9.0801C4.70311 8.89287 4.56618 8.73645 4.39081 8.63524L3.39715 8.06141C3.18649 7.93985 3.03274 7.73959 2.96974 7.50468C2.90673 7.26977 2.93963 7.01945 3.06119 6.80879C3.18274 6.59813 3.38301 6.44438 3.61792 6.38138C3.85283 6.31838 4.10315 6.35127 4.31381 6.47283L5.30931 7.0485C5.48493 7.15072 5.68953 7.19169 5.89096 7.16497C6.0924 7.13826 6.27925 7.04537 6.42215 6.90091C7.23806 6.06798 8.26595 5.47368 9.3949 5.18216C9.59256 5.13134 9.76761 5.01602 9.89231 4.85445C10.017 4.69289 10.0842 4.49433 10.0833 4.29024V3.14258C10.0833 2.89946 10.1799 2.66631 10.3518 2.4944C10.5237 2.32249 10.7569 2.22591 11 2.22591C11.2431 2.22591 11.4763 2.32249 11.6482 2.4944C11.8201 2.66631 11.9166 2.89946 11.9166 3.14258V4.29024C11.9165 4.49371 11.9841 4.69142 12.1088 4.85224C12.2334 5.01305 12.408 5.12783 12.6051 5.1785C13.7344 5.47105 14.7623 6.06664 15.5778 6.90091C15.7203 7.04617 15.9071 7.13988 16.1088 7.16726C16.3104 7.19465 16.5155 7.15415 16.6916 7.05216L17.6852 6.47741C17.7895 6.41627 17.9049 6.37637 18.0246 6.35999C18.1444 6.34361 18.2663 6.35109 18.3831 6.38199C18.5 6.41289 18.6096 6.4666 18.7056 6.54003C18.8017 6.61347 18.8822 6.70517 18.9427 6.80986C19.0031 6.91455 19.0423 7.03017 19.0579 7.15005C19.0734 7.26993 19.0651 7.39171 19.0335 7.50838C19.0018 7.62505 18.9474 7.7343 18.8733 7.82984C18.7992 7.92538 18.707 8.00533 18.6019 8.06508L17.6082 8.63891C17.4332 8.74039 17.2966 8.89693 17.2199 9.08413C17.1431 9.27133 17.1304 9.47867 17.1838 9.67383V9.67291Z" fill="white"/>
</g>
<defs>
<clipPath id="clip0_314_4540">
<rect width="22" height="22" fill="white" transform="translate(0 0.392578)"/>
</clipPath>
</defs>
</svg>
