<svg width="22" height="23" viewBox="0 0 22 23" fill="none" xmlns="http://www.w3.org/2000/svg">
<g clip-path="url(#clip0_1412_16418)">
<path d="M6.875 13.0153C6.05915 13.0153 5.26163 12.7734 4.58327 12.3201C3.90492 11.8669 3.37621 11.2226 3.064 10.4689C2.75179 9.71513 2.6701 8.88573 2.82926 8.08555C2.98842 7.28538 3.38129 6.55038 3.95818 5.97349C4.53508 5.39659 5.27008 5.00373 6.07025 4.84456C6.87042 4.6854 7.69982 4.76709 8.45357 5.0793C9.20731 5.39151 9.85155 5.92022 10.3048 6.59857C10.7581 7.27693 11 8.07445 11 8.8903C10.9988 9.98395 10.5638 11.0325 9.79048 11.8058C9.01715 12.5791 7.96865 13.0141 6.875 13.0153ZM6.875 6.59863C6.42175 6.59863 5.97868 6.73304 5.60182 6.98485C5.22496 7.23666 4.93123 7.59457 4.75778 8.01332C4.58433 8.43207 4.53894 8.89284 4.62737 9.33738C4.71579 9.78192 4.93405 10.1903 5.25455 10.5108C5.57504 10.8312 5.98338 11.0495 6.42792 11.1379C6.87246 11.2264 7.33324 11.181 7.75198 11.0075C8.17073 10.8341 8.52864 10.5403 8.78045 10.1635C9.03226 9.78662 9.16667 9.34355 9.16667 8.8903C9.16667 8.28251 8.92522 7.69962 8.49545 7.26985C8.06568 6.84008 7.48279 6.59863 6.875 6.59863ZM13.75 22.182V21.7236C13.75 19.9003 13.0257 18.1516 11.7364 16.8623C10.447 15.573 8.69836 14.8486 6.875 14.8486C5.05164 14.8486 3.30295 15.573 2.01364 16.8623C0.724328 18.1516 0 19.9003 0 21.7236L0 22.182C0 22.4251 0.0965771 22.6582 0.268485 22.8302C0.440394 23.0021 0.673552 23.0986 0.916667 23.0986C1.15978 23.0986 1.39294 23.0021 1.56485 22.8302C1.73676 22.6582 1.83333 22.4251 1.83333 22.182V21.7236C1.83333 20.3865 2.36451 19.1041 3.31 18.1586C4.2555 17.2131 5.53787 16.682 6.875 16.682C8.21213 16.682 9.4945 17.2131 10.44 18.1586C11.3855 19.1041 11.9167 20.3865 11.9167 21.7236V22.182C11.9167 22.4251 12.0132 22.6582 12.1852 22.8302C12.3571 23.0021 12.5902 23.0986 12.8333 23.0986C13.0764 23.0986 13.3096 23.0021 13.4815 22.8302C13.6534 22.6582 13.75 22.4251 13.75 22.182ZM22 17.5986C22 16.3599 21.6414 15.1477 20.9676 14.1083C20.2937 13.0689 19.3335 12.2468 18.2027 11.7411C17.0719 11.2355 15.8189 11.0679 14.5949 11.2587C13.371 11.4495 12.2285 11.9905 11.3053 12.8164C11.2143 12.8963 11.1401 12.9935 11.0869 13.1023C11.0337 13.211 11.0025 13.3293 10.9953 13.4502C10.9881 13.571 11.0048 13.6922 11.0447 13.8065C11.0845 13.9209 11.1466 14.0262 11.2274 14.1164C11.3082 14.2066 11.406 14.28 11.5153 14.3321C11.6246 14.3843 11.7431 14.4143 11.864 14.4205C11.985 14.4266 12.1059 14.4087 12.2199 14.3678C12.3339 14.3269 12.4386 14.2638 12.5281 14.1822C13.1876 13.5925 14.0037 13.2062 14.8779 13.07C15.7521 12.9338 16.647 13.0536 17.4546 13.4148C18.2623 13.776 18.9481 14.3633 19.4293 15.1057C19.9106 15.8481 20.1667 16.7139 20.1667 17.5986C20.1667 17.8418 20.2632 18.0749 20.4352 18.2468C20.6071 18.4187 20.8402 18.5153 21.0833 18.5153C21.3264 18.5153 21.5596 18.4187 21.7315 18.2468C21.9034 18.0749 22 17.8418 22 17.5986ZM16.0417 9.34863C15.2258 9.34863 14.4283 9.10671 13.7499 8.65345C13.0716 8.20019 12.5429 7.55595 12.2307 6.8022C11.9185 6.04846 11.8368 5.21906 11.9959 4.41889C12.1551 3.61872 12.548 2.88371 13.1249 2.30682C13.7017 1.72993 14.4367 1.33706 15.2369 1.1779C16.0371 1.01873 16.8665 1.10042 17.6202 1.41263C18.374 1.72484 19.0182 2.25355 19.4715 2.93191C19.9247 3.61026 20.1667 4.40779 20.1667 5.22363C20.1655 6.31728 19.7305 7.36579 18.9571 8.13911C18.1838 8.91243 17.1353 9.34742 16.0417 9.34863ZM16.0417 2.93197C15.5884 2.93197 15.1453 3.06637 14.7685 3.31818C14.3916 3.56999 14.0979 3.9279 13.9244 4.34665C13.751 4.7654 13.7056 5.22618 13.794 5.67072C13.8825 6.11526 14.1007 6.52359 14.4212 6.84409C14.7417 7.16458 15.15 7.38284 15.5946 7.47127C16.0391 7.55969 16.4999 7.51431 16.9187 7.34086C17.3374 7.16741 17.6953 6.87368 17.9471 6.49682C18.1989 6.11995 18.3333 5.67688 18.3333 5.22363C18.3333 4.61585 18.0919 4.03295 17.6621 3.60318C17.2323 3.17341 16.6495 2.93197 16.0417 2.93197Z" fill="white"/>
</g>
<defs>
<clipPath id="clip0_1412_16418">
<rect width="22" height="22" fill="white" transform="translate(0 0.686523)"/>
</clipPath>
</defs>
</svg>
